<svg xmlns="http://www.w3.org/2000/svg" viewBox="0 0 205.7 90.3"><path class="light-red" d="M67.9 16.5c.3 0 .6 0 1-.1v.1l7.4 32.3c6.5-2.3 14.2-3.7 22.5-3.7s16 1.4 22.4 3.7l7.4-32.3v-.1c.3.1.6.1 1 .1 2.3 0 4.2-2 4.2-4.5s-1.9-4.5-4.2-4.5-4.2 2-4.2 4.5c0 1.5.7 2.9 1.9 3.7L118 36.2c-.4.8-1.2 1.4-2.1 1.4-1.3 0-2.3-1.1-2.3-2.5v-7.9c2-.3 3.5-2.1 3.5-4.3 0-2.4-1.9-4.4-4.1-4.4-2.3 0-4.1 2-4.1 4.4 0 2 1.3 3.7 3 4.2l-2.8 7.7c-.4 1.2-1.3 2.6-2.8 2.5-2.5-.1-3.1-1.7-3.3-3.5L100 12c2.2-.4 3.7-1.9 3.7-3.4 0-1.8-3.5-8.6-5-8.6-1.4 0-5 6.7-5 8.6 0 1.5 1.5 3 3.7 3.4l-2.7 21.7c-.2 1.9-.8 3.4-3.3 3.5-1.5.1-2.4-1.3-2.8-2.5L85.8 27c1.7-.5 3-2.2 3-4.2 0-2.4-1.9-4.4-4.1-4.4-2.3 0-4.1 2-4.1 4.4 0 2.2 1.5 4 3.5 4.3V35c0 1.4-1 2.5-2.3 2.5-.9 0-1.7-.6-2.1-1.4l-9.4-20.5c1.1-.8 1.9-2.2 1.9-3.7 0-2.5-1.9-4.5-4.2-4.5-2.3 0-4.2 2-4.2 4.5-.1 2.6 1.8 4.6 4.1 4.6"></path><path class="light-red" d="M76.9 51.6l.9 3.8c6.1-2.3 13.3-3.5 21-3.5 7.7 0 14.9 1.1 21 3.4l.9-3.8c-6.4-2.5-14-3.8-21.9-3.8-7.7.1-15.8 1.5-21.9 3.9"></path><path class="dark-grey" d="M90.6 66.7c-.1 1.4.6 1.9 2.2 2.5 4.1 1.5 13.2 1.4 18.9 4.1 3.1 1.5 4.8 4.2 4.8 7.4 0 4.3-3.7 10-19.2 9.6-5.6-.1-10.5-1.2-13.9-2.9V81h5.2l.3 3.6c2.1.7 4.8 1.3 8.5 1.3 8.6.2 11.4-1.3 11.4-3.5 0-.9-.4-2-2.2-2.6-1.6-.6-8.6-1.3-13.2-2.2-8.5-1.8-10.9-4.9-10.9-9.4 0-3.7 3.1-8.7 17.7-8.4 6.1.2 10.7 1.2 13.9 2.1v6.2h-4.7l-.6-2.5c-1.7-.7-5.3-1.3-8-1.4-7.7 0-10.1 1.1-10.2 2.5M177.7 85.4c-7.8 0-11.8-4.3-11.8-10.3 0-6 4-10.3 11.8-10.3 7.8 0 11.9 4.3 11.9 10.3 0 5.9-4.1 10.3-11.9 10.3m-.3-25.1c-14 0-20.2 6.6-20.2 14.6s6.2 14.6 20.2 14.6 20.7-6.6 20.7-14.6-6.7-14.6-20.7-14.6M130.3 74.9c0-5.9 3.8-10.7 11.3-10.7 2.3 0 4.2.2 6.1.6l.7 3.2h4.7v-6.5c-2.8-.8-6.6-1.4-12.2-1.4-14.1 0-20.4 6.7-20.4 14.8 0 8.1 6.3 14.8 20.4 14.8 5.6 0 9.3-.6 12.2-1.4v-6.5h-4.7l-.7 3.2c-1.9.4-3.8.6-6.1.6-7.5 0-11.3-4.7-11.3-10.7M52.1 78.3l6.3-11s3 5.5 6.1 11H52.1zm18.4 10.8h10L64.3 60.9h-8L40.6 89.1h5.3l3.7-6.5h17.2c1.8 3.1 3.2 5.6 3.7 6.5M8.7 67.8s17.1 16.1 19.7 18.8c2.7 2.9 6.6 2.5 6.6 2.5h1.8V65.2l3.6-.5v-3.9h-12v3.9l3.6.5v12.9s-13.2-12.2-15-14c-1.7-1.7-3.4-3.3-8.7-3.3H0v4.4l3.9 1.2v18.3l-3.6.5v3.9h12v-3.9l-3.6-.5V67.8zM201.8 63.8h.4c.4 0 .8-.1.8-.5 0-.3-.2-.5-.7-.5h-.4v1zm0 1.9h-.8v-3.4c.3-.1.7-.1 1.3-.1.6 0 .9.1 1.1.3.2.1.3.4.3.8s-.3.7-.7.8c.3.1.5.4.6.8.1.5.2.7.2.9h-.8c-.1-.1-.2-.4-.3-.8-.1-.4-.3-.5-.7-.5h-.4v1.2zm-2-1.8c0 1.5 1.1 2.7 2.5 2.7s2.5-1.2 2.5-2.7c0-1.5-1.1-2.8-2.5-2.8-1.4.1-2.5 1.3-2.5 2.8m5.9 0c0 1.9-1.5 3.5-3.3 3.5-1.9 0-3.4-1.5-3.4-3.5 0-1.9 1.5-3.4 3.4-3.4 1.8 0 3.3 1.5 3.3 3.4"></path></svg>