<svg width="40" height="40" viewBox="0 0 40 40" fill="none" xmlns="http://www.w3.org/2000/svg">
<path d="M11.6666 8.33366V3.33366C11.6666 2.89163 11.8422 2.46771 12.1547 2.15515C12.4673 1.84259 12.8912 1.66699 13.3333 1.66699H26.6666C27.1086 1.66699 27.5325 1.84259 27.8451 2.15515C28.1577 2.46771 28.3333 2.89163 28.3333 3.33366V8.33366H34.9999C35.4419 8.33366 35.8659 8.50925 36.1784 8.82182C36.491 9.13438 36.6666 9.5583 36.6666 10.0003V33.3337C36.6666 33.7757 36.491 34.1996 36.1784 34.5122C35.8659 34.8247 35.4419 35.0003 34.9999 35.0003H4.99992C4.55789 35.0003 4.13397 34.8247 3.82141 34.5122C3.50885 34.1996 3.33325 33.7757 3.33325 33.3337V10.0003C3.33325 9.5583 3.50885 9.13438 3.82141 8.82182C4.13397 8.50925 4.55789 8.33366 4.99992 8.33366H11.6666ZM28.3333 11.667V20.0003H33.3333V11.667H28.3333ZM24.9999 11.667H14.9999V20.0003H24.9999V11.667ZM11.6666 11.667H6.66659V20.0003H11.6666V11.667ZM14.9999 5.00033V8.33366H24.9999V5.00033H14.9999Z" fill="white"/>
</svg>
