<svg width="18" height="17" viewBox="0 0 18 17" fill="none" xmlns="http://www.w3.org/2000/svg">
<path d="M4.83317 3.66683V1.16683C4.83317 0.706596 5.20627 0.333496 5.6665 0.333496H12.3332C12.7934 0.333496 13.1665 0.706596 13.1665 1.16683V3.66683H16.4998C16.9601 3.66683 17.3332 4.03993 17.3332 4.50016V16.1668C17.3332 16.6271 16.9601 17.0002 16.4998 17.0002H1.49984C1.0396 17.0002 0.666504 16.6271 0.666504 16.1668V4.50016C0.666504 4.03993 1.0396 3.66683 1.49984 3.66683H4.83317ZM2.33317 12.8335V15.3335H15.6665V12.8335H2.33317ZM2.33317 11.1668H15.6665V5.3335H2.33317V11.1668ZM6.49984 2.00016V3.66683H11.4998V2.00016H6.49984ZM8.1665 8.66683H9.83317V10.3335H8.1665V8.66683Z" fill="currentColor"/>
</svg>
