<svg width="32" height="32" viewBox="0 0 32 32" fill="none" xmlns="http://www.w3.org/2000/svg">
<path d="M9.33342 6.66634V2.66634C9.33342 1.92997 9.93038 1.33301 10.6667 1.33301H21.3334C22.0698 1.33301 22.6667 1.92997 22.6667 2.66634V6.66634H28.0001C28.7365 6.66634 29.3334 7.2633 29.3334 7.99967V26.6663C29.3334 27.4027 28.7365 27.9997 28.0001 27.9997H4.00008C3.26371 27.9997 2.66675 27.4027 2.66675 26.6663V7.99967C2.66675 7.2633 3.26371 6.66634 4.00008 6.66634H9.33342ZM20.0001 9.33301H12.0001V25.333H20.0001V9.33301ZM9.33342 9.33301H5.33341V25.333H9.33342V9.33301ZM22.6667 9.33301V25.333H26.6667V9.33301H22.6667ZM12.0001 3.99967V6.66634H20.0001V3.99967H12.0001Z" fill="white"/>
</svg>
