<svg width="32" height="32" viewBox="0 0 32 32" fill="none" xmlns="http://www.w3.org/2000/svg">
<path d="M9.72164 27.7659L2.66675 29.3337L4.23449 22.2787C3.234 20.4078 2.66675 18.2703 2.66675 16.0003C2.66675 8.63653 8.63628 2.66699 16.0001 2.66699C23.3638 2.66699 29.3334 8.63653 29.3334 16.0003C29.3334 23.3641 23.3638 29.3337 16.0001 29.3337C13.7301 29.3337 11.5926 28.7665 9.72164 27.7659ZM10.1077 24.9483L10.9791 25.4143C12.5101 26.233 14.2207 26.667 16.0001 26.667C21.8911 26.667 26.6667 21.8914 26.6667 16.0003C26.6667 10.1093 21.8911 5.33366 16.0001 5.33366C10.109 5.33366 5.33341 10.1093 5.33341 16.0003C5.33341 17.7797 5.7674 19.4903 6.58607 21.0213L7.05203 21.8926L6.17896 25.8214L10.1077 24.9483Z" fill="white"/>
</svg>
