<svg width="32" height="32" viewBox="0 0 32 32" fill="none" xmlns="http://www.w3.org/2000/svg">
<path d="M20.0001 26.6667C20.0001 26.313 19.8596 25.9739 19.6096 25.7239C19.3595 25.4738 19.0204 25.3333 18.6667 25.3333H17.3334V22.6667H22.6667C23.374 22.6667 24.0523 22.3857 24.5524 21.8856C25.0525 21.3855 25.3334 20.7072 25.3334 20V6.66667C25.3334 5.95942 25.0525 5.28115 24.5524 4.78105C24.0523 4.28095 23.374 4 22.6667 4H9.33342C8.62617 4 7.94789 4.28095 7.4478 4.78105C6.9477 5.28115 6.66675 5.95942 6.66675 6.66667V20C6.66675 20.7072 6.9477 21.3855 7.4478 21.8856C7.94789 22.3857 8.62617 22.6667 9.33342 22.6667H14.6667V25.3333H13.3334C12.9798 25.3333 12.6407 25.4738 12.3906 25.7239C12.1406 25.9739 12.0001 26.313 12.0001 26.6667H2.66675V29.3333H12.0001C12.0001 29.687 12.1406 30.0261 12.3906 30.2761C12.6407 30.5262 12.9798 30.6667 13.3334 30.6667H18.6667C19.0204 30.6667 19.3595 30.5262 19.6096 30.2761C19.8596 30.0261 20.0001 29.687 20.0001 29.3333H29.3334V26.6667H20.0001ZM11.0001 13.44L12.5467 11.8933L14.6667 14L19.4534 9.22667L21.0001 11.1067L14.6667 17.44L11.0001 13.44Z" fill="white"/>
</svg>
