<svg width="32" height="32" viewBox="0 0 32 32" fill="none" xmlns="http://www.w3.org/2000/svg">
<path d="M23.4002 15.9997L18.6668 11.2663L20.5668 9.39967L23.4002 12.233L29.0668 6.56634L30.9335 8.46634L23.4002 15.9997ZM12.0002 15.9997C10.5335 15.9997 9.27794 15.4775 8.2335 14.433C7.18905 13.3886 6.66683 12.133 6.66683 10.6663C6.66683 9.19967 7.18905 7.94412 8.2335 6.89967C9.27794 5.85523 10.5335 5.33301 12.0002 5.33301C13.4668 5.33301 14.7224 5.85523 15.7668 6.89967C16.8113 7.94412 17.3335 9.19967 17.3335 10.6663C17.3335 12.133 16.8113 13.3886 15.7668 14.433C14.7224 15.4775 13.4668 15.9997 12.0002 15.9997ZM1.3335 26.6663V22.933C1.3335 22.1775 1.52816 21.4832 1.9175 20.8503C2.30683 20.2175 2.82327 19.7339 3.46683 19.3997C4.84461 18.7108 6.24461 18.1943 7.66683 17.8503C9.08905 17.5063 10.5335 17.3339 12.0002 17.333C13.4668 17.333 14.9113 17.5055 16.3335 17.8503C17.7557 18.1952 19.1557 18.7117 20.5335 19.3997C21.1779 19.733 21.6948 20.2166 22.0842 20.8503C22.4735 21.4841 22.6677 22.1783 22.6668 22.933V26.6663H1.3335Z" fill="white"/>
</svg>
