<svg width="28" height="27" viewBox="0 0 28 27" fill="none" xmlns="http://www.w3.org/2000/svg">
<path d="M0.990521 8.13891L13.3194 0.744573C13.7417 0.491306 14.2693 0.491399 14.6914 0.744813L27.0098 8.13888C27.2106 8.25937 27.3334 8.47635 27.3334 8.71048V25.6664C27.3334 26.4028 26.7365 26.9998 26.0001 26.9998H2.00008C1.26371 26.9998 0.666748 26.4028 0.666748 25.6664V8.71064C0.666748 8.47641 0.789655 8.25939 0.990521 8.13891ZM3.33341 9.84325V24.3331H24.6667V9.84263L14.005 3.44293L3.33341 9.84325ZM14.0797 17.2642L21.1409 11.3135L22.8593 13.3527L14.0987 20.7354L5.15209 13.362L6.84807 11.3042L14.0797 17.2642Z" fill="white"/>
</svg>
