<svg width="20" height="17" viewBox="0 0 20 17" fill="none" xmlns="http://www.w3.org/2000/svg">
<path d="M5.00016 15.3331H15.0002V7.13099L10.0002 2.58553L5.00016 7.13099V15.3331ZM15.8335 16.9998H4.16683C3.7066 16.9998 3.3335 16.6267 3.3335 16.1664V8.66645H0.833496L9.43958 0.842695C9.75741 0.553737 10.2429 0.553737 10.5607 0.842695L19.1668 8.66645H16.6668V16.1664C16.6668 16.6267 16.2937 16.9998 15.8335 16.9998ZM6.66683 7.8331C9.8885 7.8331 12.5002 10.4448 12.5002 13.6664H10.8335C10.8335 11.3653 8.968 9.49978 6.66683 9.49978V7.8331ZM6.66683 11.1664C8.04754 11.1664 9.16683 12.2857 9.16683 13.6664H6.66683V11.1664Z" fill="currentColor" fill-opacity="0.9"/>
</svg>
