<svg width="40" height="25" viewBox="0 0 40 25" fill="none" xmlns="http://www.w3.org/2000/svg">
<path d="M20.2125 1.825L14.1625 6.725C13.1562 7.5375 12.9625 9 13.725 10.0437C14.5312 11.1562 16.1 11.375 17.1812 10.5312L23.3875 5.70625C23.825 5.36875 24.45 5.44375 24.7938 5.88125C25.1375 6.31875 25.0562 6.94375 24.6187 7.2875L23.3125 8.3L32 16.3V4.5H31.9562L31.7125 4.34375L27.175 1.4375C26.2188 0.825 25.1 0.5 23.9625 0.5C22.6 0.5 21.275 0.96875 20.2125 1.825ZM21.6375 9.6L18.4062 12.1125C16.4375 13.65 13.5813 13.25 12.1062 11.225C10.7188 9.31875 11.0687 6.65625 12.9 5.175L18.1 0.96875C17.375 0.6625 16.5938 0.50625 15.8 0.50625C14.625 0.5 13.4812 0.85 12.5 1.5L8 4.5V18.5H9.7625L15.475 23.7125C16.7 24.8312 18.5938 24.7437 19.7125 23.5187C20.0562 23.1375 20.2875 22.6938 20.4062 22.2313L21.4688 23.2062C22.6875 24.325 24.5875 24.2437 25.7062 23.025C25.9875 22.7188 26.1938 22.3625 26.325 21.9937C27.5375 22.8062 29.1875 22.6375 30.2062 21.525C31.325 20.3062 31.2437 18.4062 30.025 17.2875L21.6375 9.6ZM1 4.5C0.45 4.5 0 4.95 0 5.5V18.5C0 19.6063 0.89375 20.5 2 20.5H4C5.10625 20.5 6 19.6063 6 18.5V4.5H1ZM3 16.5C3.26522 16.5 3.51957 16.6054 3.70711 16.7929C3.89464 16.9804 4 17.2348 4 17.5C4 17.7652 3.89464 18.0196 3.70711 18.2071C3.51957 18.3946 3.26522 18.5 3 18.5C2.73478 18.5 2.48043 18.3946 2.29289 18.2071C2.10536 18.0196 2 17.7652 2 17.5C2 17.2348 2.10536 16.9804 2.29289 16.7929C2.48043 16.6054 2.73478 16.5 3 16.5ZM34 4.5V18.5C34 19.6063 34.8937 20.5 36 20.5H38C39.1063 20.5 40 19.6063 40 18.5V5.5C40 4.95 39.55 4.5 39 4.5H34ZM36 17.5C36 17.2348 36.1054 16.9804 36.2929 16.7929C36.4804 16.6054 36.7348 16.5 37 16.5C37.2652 16.5 37.5196 16.6054 37.7071 16.7929C37.8946 16.9804 38 17.2348 38 17.5C38 17.7652 37.8946 18.0196 37.7071 18.2071C37.5196 18.3946 37.2652 18.5 37 18.5C36.7348 18.5 36.4804 18.3946 36.2929 18.2071C36.1054 18.0196 36 17.7652 36 17.5Z" fill="white"/>
</svg>
