<svg width="21" height="16" viewBox="0 0 21 16" fill="none" xmlns="http://www.w3.org/2000/svg">
<path d="M4.00082 4.75L1.25082 1.65C0.967484 1.31667 0.913484 0.958333 1.08882 0.575C1.26348 0.191666 1.56748 0 2.00082 0H19.0008C19.5508 0 20.0218 0.196 20.4138 0.588C20.8052 0.979333 21.0008 1.45 21.0008 2V14C21.0008 14.55 20.8052 15.021 20.4138 15.413C20.0218 15.8043 19.5508 16 19.0008 16H6.00082C5.45082 16 4.98015 15.8043 4.58882 15.413C4.19682 15.021 4.00082 14.55 4.00082 14V4.75ZM8.00082 9H17.0008C17.2842 9 17.5215 8.904 17.7128 8.712C17.9048 8.52067 18.0008 8.28333 18.0008 8C18.0008 7.71667 17.9048 7.479 17.7128 7.287C17.5215 7.09567 17.2842 7 17.0008 7H8.00082C7.71749 7 7.48015 7.09567 7.28882 7.287C7.09682 7.479 7.00082 7.71667 7.00082 8C7.00082 8.28333 7.09682 8.52067 7.28882 8.712C7.48015 8.904 7.71749 9 8.00082 9ZM8.00082 12H14.0008C14.2842 12 14.5218 11.904 14.7138 11.712C14.9052 11.5207 15.0008 11.2833 15.0008 11C15.0008 10.7167 14.9052 10.479 14.7138 10.287C14.5218 10.0957 14.2842 10 14.0008 10H8.00082C7.71749 10 7.48015 10.0957 7.28882 10.287C7.09682 10.479 7.00082 10.7167 7.00082 11C7.00082 11.2833 7.09682 11.5207 7.28882 11.712C7.48015 11.904 7.71749 12 8.00082 12ZM8.00082 6H17.0008C17.2842 6 17.5215 5.904 17.7128 5.712C17.9048 5.52067 18.0008 5.28333 18.0008 5C18.0008 4.71667 17.9048 4.479 17.7128 4.287C17.5215 4.09567 17.2842 4 17.0008 4H8.00082C7.71749 4 7.48015 4.09567 7.28882 4.287C7.09682 4.479 7.00082 4.71667 7.00082 5C7.00082 5.28333 7.09682 5.52067 7.28882 5.712C7.48015 5.904 7.71749 6 8.00082 6Z" fill="white"/>
</svg>
