<svg width="32" height="33" viewBox="0 0 32 33" fill="none" xmlns="http://www.w3.org/2000/svg">
<rect x="0.363636" y="1.16442" width="31.2727" height="31.2727" rx="15.6364" stroke="white" stroke-opacity="0.8" stroke-width="0.727273"/>
<path d="M16.0013 14.6183C14.7959 14.6183 13.8194 15.5951 13.8194 16.8001C13.8194 18.0054 14.7962 18.9819 16.0013 18.9819C17.2066 18.9819 18.1831 18.0051 18.1831 16.8001C18.1831 15.5948 17.2063 14.6183 16.0013 14.6183ZM16.0013 13.1637C18.0088 13.1637 19.6376 14.7907 19.6376 16.8001C19.6376 18.8077 18.0106 20.4364 16.0013 20.4364C13.9936 20.4364 12.3649 18.8095 12.3649 16.8001C12.3649 14.7925 13.9919 13.1637 16.0013 13.1637ZM20.7285 12.9813C20.7285 13.4832 20.3207 13.8904 19.8194 13.8904C19.3175 13.8904 18.9103 13.4825 18.9103 12.9813C18.9103 12.48 19.3181 12.0728 19.8194 12.0728C20.32 12.0722 20.7285 12.48 20.7285 12.9813ZM16.0013 10.9819C14.2016 10.9819 13.9083 10.9867 13.0713 11.0239C12.501 11.0507 12.1187 11.1274 11.7636 11.2653C11.4479 11.3877 11.2202 11.5339 10.9776 11.7765C10.7341 12.02 10.5882 12.2471 10.4663 12.5629C10.3281 12.9188 10.2514 13.3005 10.2251 13.87C10.1875 14.6729 10.1831 14.9536 10.1831 16.8001C10.1831 18.5997 10.1878 18.893 10.2251 19.73C10.2519 20.3 10.3287 20.6828 10.4662 21.0372C10.589 21.3532 10.7354 21.5815 10.9769 21.8229C11.2214 22.0671 11.4491 22.2135 11.7619 22.3342C12.1214 22.4732 12.5034 22.55 13.0712 22.5762C13.8741 22.6138 14.1547 22.6183 16.0013 22.6183C17.8009 22.6183 18.0942 22.6135 18.9311 22.5762C19.4999 22.5495 19.8831 22.4725 20.2383 22.3351C20.5535 22.2127 20.7825 22.0657 21.0241 21.8244C21.2686 21.5796 21.4147 21.3524 21.5356 21.0388C21.6742 20.6807 21.7511 20.2981 21.7774 19.7302C21.815 18.9272 21.8194 18.6465 21.8194 16.8001C21.8194 15.0004 21.8146 14.7071 21.7774 13.8702C21.7506 13.3012 21.6736 12.9175 21.536 12.5624C21.4139 12.2476 21.2672 12.0192 21.0248 11.7765C20.7809 11.5325 20.5544 11.3869 20.2384 11.2651C19.8827 11.127 19.5005 11.0502 18.9313 11.0239C18.1284 10.9863 17.8477 10.9819 16.0013 10.9819ZM16.0013 9.52734C17.977 9.52734 18.2237 9.53462 18.9994 9.57098C19.7733 9.60674 20.3013 9.72916 20.7649 9.90916C21.2442 10.094 21.6491 10.3437 22.0533 10.7479C22.457 11.1522 22.7067 11.5583 22.8922 12.0364C23.0715 12.4995 23.194 13.0279 23.2303 13.8019C23.2649 14.5776 23.274 14.8243 23.274 16.8001C23.274 18.7759 23.2667 19.0225 23.2303 19.7983C23.1946 20.5722 23.0715 21.1001 22.8922 21.5637C22.7073 22.0431 22.457 22.4479 22.0533 22.8522C21.6491 23.2559 21.2424 23.5055 20.7649 23.691C20.3013 23.8704 19.7733 23.9928 18.9994 24.0292C18.2237 24.0637 17.977 24.0728 16.0013 24.0728C14.0255 24.0728 13.7788 24.0655 13.0031 24.0292C12.2291 23.9934 11.7018 23.8704 11.2376 23.691C10.7588 23.5061 10.3534 23.2559 9.94912 22.8522C9.54488 22.4479 9.29579 22.0413 9.11033 21.5637C8.93033 21.1001 8.80852 20.5722 8.77215 19.7983C8.73761 19.0225 8.72852 18.7759 8.72852 16.8001C8.72852 14.8243 8.73579 14.5776 8.77215 13.8019C8.8079 13.0273 8.93033 12.5001 9.11033 12.0364C9.29518 11.5576 9.54488 11.1522 9.94912 10.7479C10.3534 10.3437 10.7594 10.0946 11.2376 9.90916C11.7012 9.72916 12.2285 9.60734 13.0031 9.57098C13.7788 9.53643 14.0255 9.52734 16.0013 9.52734Z" fill="white" fill-opacity="0.8"/>
</svg>
