<svg width="28" height="22" viewBox="0 0 28 22" fill="none" xmlns="http://www.w3.org/2000/svg">
<path fill-rule="evenodd" clip-rule="evenodd" d="M8.6665 0.333677C7.25202 0.333677 5.89546 0.89558 4.89527 1.89577C3.89507 2.89597 3.33317 4.25252 3.33317 5.66701C3.33317 7.0815 3.89507 8.43805 4.89527 9.43825C5.89546 10.4384 7.25202 11.0003 8.6665 11.0003C10.081 11.0003 11.4375 10.4384 12.4377 9.43825C13.4379 8.43805 13.9998 7.0815 13.9998 5.66701C13.9998 4.25252 13.4379 2.89597 12.4377 1.89577C11.4375 0.89558 10.081 0.333677 8.6665 0.333677ZM5.99984 12.3337C4.58535 12.3337 3.2288 12.8956 2.2286 13.8958C1.22841 14.896 0.666504 16.2525 0.666504 17.667V19.0003C0.666504 19.7076 0.947455 20.3859 1.44755 20.886C1.94765 21.3861 2.62593 21.667 3.33317 21.667H13.9998C14.7071 21.667 15.3854 21.3861 15.8855 20.886C16.3856 20.3859 16.6665 19.7076 16.6665 19.0003V17.667C16.6665 16.2525 16.1046 14.896 15.1044 13.8958C14.1042 12.8956 12.7477 12.3337 11.3332 12.3337H5.99984ZM15.6665 9.54034C16.3038 8.39368 16.6665 7.07368 16.6665 5.66701C16.6684 4.3114 16.3242 2.97774 15.6665 1.79234C16.4236 1.07598 17.374 0.597159 18.4002 0.415049C19.4265 0.232939 20.4836 0.355525 21.441 0.767657C22.3983 1.17979 23.2139 1.8634 23.787 2.73401C24.36 3.60462 24.6654 4.62406 24.6654 5.66634C24.6654 6.70863 24.36 7.72807 23.787 8.59868C23.2139 9.46929 22.3983 10.1529 21.441 10.565C20.4836 10.9772 19.4265 11.0997 18.4002 10.9176C17.374 10.7355 16.4236 10.2567 15.6665 9.54034ZM18.6212 21.667C19.0745 20.883 19.3345 19.9723 19.3345 19.0003V17.667C19.3372 15.6987 18.6115 13.7989 17.2972 12.3337H21.9998C23.4143 12.3337 24.7709 12.8956 25.7711 13.8958C26.7713 14.896 27.3332 16.2525 27.3332 17.667V19.0003C27.3332 19.7076 27.0522 20.3859 26.5521 20.886C26.052 21.3861 25.3737 21.667 24.6665 21.667H18.6212Z" fill="white"/>
</svg>
