<svg width="24" height="24" viewBox="0 0 24 24" fill="none" xmlns="http://www.w3.org/2000/svg">
<g clip-path="url(#clip0_771_13281)">
<path d="M0 20V18H3L2 17V3H22V17L21 18H24V20H0ZM12 19C12.2833 19 12.521 18.904 12.713 18.712C12.905 18.52 13.0007 18.2827 13 18C13 17.7167 12.904 17.4793 12.712 17.288C12.52 17.0967 12.2827 17.0007 12 17C11.7167 17 11.4793 17.096 11.288 17.288C11.0967 17.48 11.0007 17.7173 11 18C11 18.2833 11.096 18.521 11.288 18.713C11.48 18.905 11.7173 19.0007 12 19Z" fill="white"/>
</g>
<defs>
<clipPath id="clip0_771_13281">
<rect width="24" height="24" fill="white"/>
</clipPath>
</defs>
</svg>
