<svg width="32" height="33" viewBox="0 0 32 33" fill="none" xmlns="http://www.w3.org/2000/svg">
<rect x="0.363636" y="1.16442" width="31.2727" height="31.2727" rx="15.6364" stroke="white" stroke-opacity="0.8" stroke-width="0.727273"/>
<path d="M10.1824 10.2559H21.8187C22.2204 10.2559 22.546 10.5815 22.546 10.9831V22.6195C22.546 23.0212 22.2204 23.3468 21.8187 23.3468H10.1824C9.78069 23.3468 9.45508 23.0212 9.45508 22.6195V10.9831C9.45508 10.5815 9.78069 10.2559 10.1824 10.2559ZM10.9096 11.7104V21.8922H21.0915V11.7104H10.9096ZM12.7278 14.6195C12.1253 14.6195 11.6369 14.1311 11.6369 13.5286C11.6369 12.9261 12.1253 12.4377 12.7278 12.4377C13.3303 12.4377 13.8187 12.9261 13.8187 13.5286C13.8187 14.1311 13.3303 14.6195 12.7278 14.6195ZM12.0005 15.3468H13.4551V20.8013H12.0005V15.3468ZM16.0005 15.6591C16.4256 15.2488 16.9209 14.9831 17.4551 14.9831C18.9613 14.9831 20.0005 16.2042 20.0005 17.7104V20.8013H18.546V17.7104C18.546 17.0075 17.9762 16.4377 17.2733 16.4377C16.5704 16.4377 16.0005 17.0075 16.0005 17.7104V20.8013H14.546V15.3468H16.0005V15.6591Z" fill="white" fill-opacity="0.8"/>
</svg>
