<svg width="148" height="47" viewBox="0 0 148 47" fill="none" xmlns="http://www.w3.org/2000/svg">
<path d="M134 23.4503V20.9556H145C145.446 20.9556 146.121 21.2662 146.746 21.6274C147.564 22.1005 148 23.009 148 23.9543V26.4439L146.5 27.9407L148 28.9386V33.4291C148 35.0257 146 35.7575 145 35.9238H134V33.4291H145V28.9386H134V26.4439H145V23.4503H134Z" fill="#EB303D"/>
<path fill-rule="evenodd" clip-rule="evenodd" d="M115 20.9556V34.9259H118V28.9386H126L129 34.9259H132L129 28.9386C129.667 28.606 131.1 27.6414 131.5 26.4439C131.9 25.2465 131.667 23.284 131.5 22.4524C131.37 21.8046 131.1 20.9556 129.5 20.9556H115ZM129 22.9513H118H117.5V26.4439H129V22.9513Z" fill="#EB303D"/>
<path d="M113 20.9556H98.5H98V35.9238H113V33.4291H101V29.4376H112.5V26.9429H101V23.4503H113V20.9556Z" fill="#EB303D"/>
<path d="M79.5 20.9556H76.5H76L85 29.4376V35.4249H88V29.4376L96.5 20.9556H93L86.5 27.4418L79.5 20.9556Z" fill="#EB303D"/>
<path d="M50 35.4249V21.4545V20.9556H53.5V32.9301H63.5L71 20.9556H73.5L83 35.4249H79.5L73 24.4482H72L64.5 35.4249H50Z" fill="#EB303D"/>
<path d="M18.6189 42.4101C7.0189 39.2169 10.1189 30.9345 11.6189 27.4419C7.6189 30.4355 7.28554 35.5913 8.11887 37.9197C10.5189 44.3061 17.6189 45.9027 22.6189 45.9027C32.6189 46.9006 45.6189 42.4101 47.1189 39.4165C38.3189 43.8072 24.4522 43.2417 18.6189 42.4101Z" fill="#EB303D"/>
<path d="M17.619 40.4141C16.619 39.9152 15.5758 37.4395 15.6191 30.9342C16.1191 25.4459 22.1191 18.9596 24.5825 15.966C21.6191 15.4671 20.6794 16.8951 17.1191 20.9554C13.8597 24.6726 12.7491 28.2732 12.5824 29.4374C10.5824 35.4247 15.619 41.412 17.619 40.4141Z" fill="#EB303D"/>
<path d="M74.2202 10.5371C73.6189 0.997882 62.7202 0.0593344 56.7202 0.0593388C54.7201 -0.114878 49.7202 0.0593282 43.2202 1.05722C36.7202 2.05512 28.2202 5.04875 24.2202 7.04449C20.2201 9.04024 10.6188 14.9682 4.61888 22.9513C-0.144951 29.2897 -0.779832 34.9852 0.72018 39.4757C2.77568 45.629 14.5535 47.2924 21.2202 46.9598C15.6202 46.9598 10.5535 44.2988 8.72017 42.9682C4.32017 38.9767 5.95217 33.429 7.11884 30.9343C9.16256 27.5353 12.2488 23.9411 15.1145 21.0427C18.6392 17.4779 22.6605 14.359 27.2464 12.3339C31.9121 10.2736 37.7519 8.20692 41.1189 6.98517C51.9189 3.79195 63.6189 5.15561 67.7202 7.04449C74.2202 10.0381 70.2202 18.9598 67.7202 22.9513C72.6189 19.4587 74.4471 14.1364 74.2202 10.5371Z" fill="#EB303D"/>
</svg>
