<svg width="40" height="40" viewBox="0 0 40 40" fill="none" xmlns="http://www.w3.org/2000/svg">
<path d="M8.21659 8.2168C6.66663 9.76244 5.43732 11.5991 4.59928 13.6212C3.76124 15.6434 3.331 17.8112 3.33326 20.0001C3.33326 24.6001 5.19993 28.7668 8.21659 31.7835L10.5666 29.4335C9.32435 28.1976 8.33991 26.7273 7.67042 25.108C7.00094 23.4886 6.65973 21.7524 6.66659 20.0001C6.66659 16.3168 8.14993 12.9668 10.5666 10.5668L8.21659 8.2168ZM31.7833 8.2168L29.4333 10.5668C30.674 11.8038 31.6575 13.2743 32.3269 14.8934C32.9962 16.5125 33.3383 18.2481 33.3333 20.0001C33.3333 23.7001 31.8499 27.0335 29.4333 29.4335L31.7833 31.7835C33.3332 30.2378 34.5625 28.4012 35.4006 26.379C36.2386 24.3569 36.6689 22.1891 36.6666 20.0001C36.6666 15.4001 34.7999 11.2335 31.7833 8.2168ZM12.9333 12.9335C12.0029 13.8601 11.2649 14.9614 10.7615 16.1741C10.2581 17.3868 9.99926 18.6871 9.99993 20.0001C9.99993 22.7501 11.1166 25.2501 12.9333 27.0668L15.2833 24.7168C14.6644 24.0972 14.1736 23.3618 13.839 22.5525C13.5044 21.7432 13.3326 20.8759 13.3333 20.0001C13.3333 18.1501 14.0833 16.4835 15.2833 15.2835L12.9333 12.9335ZM27.0666 12.9335L24.7166 15.2835C25.3355 15.903 25.8263 16.6385 26.1608 17.4478C26.4954 18.2571 26.6673 19.1244 26.6666 20.0001C26.6666 21.8501 25.9166 23.5168 24.7166 24.7168L27.0666 27.0668C27.9969 26.1402 28.735 25.0389 29.2384 23.8262C29.7418 22.6134 30.0006 21.3132 29.9999 20.0001C29.9999 17.2501 28.8833 14.7501 27.0666 12.9335ZM19.9999 16.6668C19.1159 16.6668 18.268 17.018 17.6429 17.6431C17.0178 18.2682 16.6666 19.1161 16.6666 20.0001C16.6666 20.8842 17.0178 21.732 17.6429 22.3572C18.268 22.9823 19.1159 23.3335 19.9999 23.3335C20.884 23.3335 21.7318 22.9823 22.3569 22.3572C22.9821 21.732 23.3333 20.8842 23.3333 20.0001C23.3333 19.1161 22.9821 18.2682 22.3569 17.6431C21.7318 17.018 20.884 16.6668 19.9999 16.6668Z" fill="white"/>
</svg>
