<svg width="24" height="24" viewBox="0 0 24 24" fill="none" xmlns="http://www.w3.org/2000/svg">
<path d="M19 15C18.7167 15 18.4793 14.904 18.288 14.712C18.0967 14.52 18.0007 14.2827 18 14C18 13.7167 18.096 13.4793 18.288 13.288C18.48 13.0967 18.7173 13.0007 19 13H20C20.2833 13 20.521 13.096 20.713 13.288C20.905 13.48 21.0007 13.7173 21 14C21 14.2833 20.904 14.521 20.712 14.713C20.52 14.905 20.2827 15.0007 20 15H19ZM19 19C18.7167 19 18.4793 18.904 18.288 18.712C18.0967 18.52 18.0007 18.2827 18 18C18 17.7167 18.096 17.4793 18.288 17.288C18.48 17.0967 18.7173 17.0007 19 17H20C20.2833 17 20.521 17.096 20.713 17.288C20.905 17.48 21.0007 17.7173 21 18C21 18.2833 20.904 18.521 20.712 18.713C20.52 18.905 20.2827 19.0007 20 19H19ZM14 20C13.45 20 12.9793 19.8043 12.588 19.413C12.1967 19.0217 12.0007 18.5507 12 18H11C10.7167 18 10.4793 17.904 10.288 17.712C10.0967 17.52 10.0007 17.2827 10 17V15C10 14.7167 10.096 14.4793 10.288 14.288C10.48 14.0967 10.7173 14.0007 11 14H12C12 13.45 12.196 12.9793 12.588 12.588C12.98 12.1967 13.4507 12.0007 14 12H16C16.2833 12 16.521 12.096 16.713 12.288C16.905 12.48 17.0007 12.7173 17 13V19C17 19.2833 16.904 19.521 16.712 19.713C16.52 19.905 16.2827 20.0007 16 20H14ZM7 17C5.9 17 4.95833 16.6083 4.175 15.825C3.39167 15.0417 3 14.1 3 13C3 11.9 3.39167 10.9583 4.175 10.175C4.95833 9.39167 5.9 9 7 9H8.5C8.91667 9 9.271 8.85433 9.563 8.563C9.855 8.27167 10.0007 7.91733 10 7.5C10 7.08333 9.85433 6.72933 9.563 6.438C9.27167 6.14667 8.91733 6.00067 8.5 6H5C4.71667 6 4.47933 5.904 4.288 5.712C4.09667 5.52 4.00067 5.28267 4 5C4 4.71667 4.096 4.47933 4.288 4.288C4.48 4.09667 4.71733 4.00067 5 4H8.5C9.46667 4 10.2917 4.34167 10.975 5.025C11.6583 5.70833 12 6.53333 12 7.5C12 8.46667 11.6583 9.29167 10.975 9.975C10.2917 10.6583 9.46667 11 8.5 11H7C6.45 11 5.97933 11.196 5.588 11.588C5.19667 11.98 5.00067 12.4507 5 13C5 13.55 5.196 14.021 5.588 14.413C5.98 14.805 6.45067 15.0007 7 15H8C8.28333 15 8.521 15.096 8.713 15.288C8.905 15.48 9.00067 15.7173 9 16C9 16.2833 8.904 16.521 8.712 16.713C8.52 16.905 8.28267 17.0007 8 17H7Z" fill="white"/>
</svg>
