<svg width="32" height="32" viewBox="0 0 32 32" fill="none" xmlns="http://www.w3.org/2000/svg">
<path d="M25.3334 29.3337H6.66671V26.667H25.3334V29.3337ZM22.6667 13.3337C20.7734 13.3337 19.0134 14.3603 18.0667 16.0003H17.3334V9.33366H21.3334V6.66699H17.3334V2.66699H14.6667V6.66699H10.6667V9.33366H14.6667V16.0003H13.9334C12.4667 13.4537 9.20005 12.5737 6.66671 14.0537C5.43856 14.7561 4.53864 15.9165 4.16383 17.2808C3.78902 18.6451 3.96983 20.1023 4.66671 21.3337C5.65338 22.987 7.42671 24.0003 9.33338 24.0003H22.6667C24.0812 24.0003 25.4378 23.4384 26.4379 22.4382C27.4381 21.438 28 20.0815 28 18.667C28 17.2525 27.4381 15.896 26.4379 14.8958C25.4378 13.8956 24.0812 13.3337 22.6667 13.3337Z" fill="white"/>
</svg>
