<svg width="263" height="263" viewBox="0 0 263 263" fill="none" xmlns="http://www.w3.org/2000/svg">
<path d="M39.0426 210.92C35.658 213.76 30.5899 213.332 27.9634 209.779C14.8931 192.099 6.49338 171.353 3.61217 149.468C0.382147 124.934 4.22181 99.9873 14.68 77.5596C25.1382 55.132 41.7804 36.1552 62.6511 22.8591C83.5217 9.56301 107.754 2.5 132.5 2.5C157.246 2.5 181.478 9.56301 202.349 22.8591C223.22 36.1552 239.862 55.132 250.32 77.5596C260.778 99.9873 264.618 124.934 261.388 149.468C258.507 171.353 250.107 192.099 237.037 209.779C234.41 213.332 229.342 213.76 225.957 210.92C222.573 208.08 222.157 203.049 224.752 199.474C235.882 184.144 243.041 166.245 245.525 147.38C248.357 125.865 244.99 103.989 235.819 84.3215C226.648 64.6542 212.054 48.013 193.752 36.3534C175.45 24.6937 154.2 18.5 132.5 18.5C110.8 18.5 89.5498 24.6937 71.2478 36.3534C52.9459 48.013 38.3519 64.6542 29.1809 84.3215C20.0099 103.989 16.6428 125.865 19.4753 147.38C21.9589 166.245 29.1184 184.144 40.2477 199.474C42.8434 203.049 42.4272 208.08 39.0426 210.92Z" fill="white" fill-opacity="0.12"/>
<mask id="path-2-outside-1_1091_2224" maskUnits="userSpaceOnUse" x="0.5" y="0.5" width="258" height="215" fill="black">
<rect fill="white" x="0.5" y="0.5" width="258" height="215"/>
<path d="M39.0426 210.92C35.658 213.76 30.59 213.332 27.9636 209.78C18.0121 196.318 10.7389 181.04 6.57027 164.775C1.73855 145.923 1.20112 126.227 4.99763 107.14C8.79414 88.0522 16.8277 70.0607 28.5056 54.4925C40.1836 38.9242 55.2079 26.1766 72.4701 17.1899C89.7323 8.20329 108.792 3.20702 128.243 2.56972C147.694 1.93242 167.04 5.67036 184.853 13.5078C202.667 21.3452 218.493 33.082 231.165 47.8524C242.098 60.5957 250.442 75.3165 255.762 91.189C257.166 95.3783 254.609 99.7751 250.342 100.919C246.074 102.063 241.714 99.5183 240.274 95.3413C235.598 81.778 228.395 69.1956 219.022 58.2706C207.909 45.3181 194.031 35.0258 178.41 28.153C162.789 21.2802 145.824 18.0023 128.767 18.5611C111.71 19.12 94.996 23.5014 79.8584 31.3819C64.7208 39.2625 51.5456 50.4413 41.3049 64.0934C31.0643 77.7456 24.0195 93.5227 20.6902 110.261C17.361 126.999 17.8323 144.271 22.0693 160.803C25.6431 174.747 31.8191 187.864 40.2477 199.474C42.8434 203.049 42.4272 208.08 39.0426 210.92Z"/>
</mask>
<path d="M39.0426 210.92C35.658 213.76 30.59 213.332 27.9636 209.78C18.0121 196.318 10.7389 181.04 6.57027 164.775C1.73855 145.923 1.20112 126.227 4.99763 107.14C8.79414 88.0522 16.8277 70.0607 28.5056 54.4925C40.1836 38.9242 55.2079 26.1766 72.4701 17.1899C89.7323 8.20329 108.792 3.20702 128.243 2.56972C147.694 1.93242 167.04 5.67036 184.853 13.5078C202.667 21.3452 218.493 33.082 231.165 47.8524C242.098 60.5957 250.442 75.3165 255.762 91.189C257.166 95.3783 254.609 99.7751 250.342 100.919C246.074 102.063 241.714 99.5183 240.274 95.3413C235.598 81.778 228.395 69.1956 219.022 58.2706C207.909 45.3181 194.031 35.0258 178.41 28.153C162.789 21.2802 145.824 18.0023 128.767 18.5611C111.71 19.12 94.996 23.5014 79.8584 31.3819C64.7208 39.2625 51.5456 50.4413 41.3049 64.0934C31.0643 77.7456 24.0195 93.5227 20.6902 110.261C17.361 126.999 17.8323 144.271 22.0693 160.803C25.6431 174.747 31.8191 187.864 40.2477 199.474C42.8434 203.049 42.4272 208.08 39.0426 210.92Z" fill="#077D55"/>
<path d="M39.0426 210.92C35.658 213.76 30.59 213.332 27.9636 209.78C18.0121 196.318 10.7389 181.04 6.57027 164.775C1.73855 145.923 1.20112 126.227 4.99763 107.14C8.79414 88.0522 16.8277 70.0607 28.5056 54.4925C40.1836 38.9242 55.2079 26.1766 72.4701 17.1899C89.7323 8.20329 108.792 3.20702 128.243 2.56972C147.694 1.93242 167.04 5.67036 184.853 13.5078C202.667 21.3452 218.493 33.082 231.165 47.8524C242.098 60.5957 250.442 75.3165 255.762 91.189C257.166 95.3783 254.609 99.7751 250.342 100.919C246.074 102.063 241.714 99.5183 240.274 95.3413C235.598 81.778 228.395 69.1956 219.022 58.2706C207.909 45.3181 194.031 35.0258 178.41 28.153C162.789 21.2802 145.824 18.0023 128.767 18.5611C111.71 19.12 94.996 23.5014 79.8584 31.3819C64.7208 39.2625 51.5456 50.4413 41.3049 64.0934C31.0643 77.7456 24.0195 93.5227 20.6902 110.261C17.361 126.999 17.8323 144.271 22.0693 160.803C25.6431 174.747 31.8191 187.864 40.2477 199.474C42.8434 203.049 42.4272 208.08 39.0426 210.92Z" stroke="#232324" stroke-width="4" mask="url(#path-2-outside-1_1091_2224)"/>
<mask id="path-3-outside-2_1091_2224" maskUnits="userSpaceOnUse" x="-0.5" y="0.5" width="221" height="215" fill="black">
<rect fill="white" x="-0.5" y="0.5" width="221" height="215"/>
<path d="M39.0678 210.95C35.6841 213.791 30.6156 213.365 27.9878 209.813C9.95448 185.437 0.95755 155.438 2.71652 125C4.6298 91.8916 19.1241 60.7661 43.2332 37.9937C67.3423 15.2213 99.243 2.52384 132.407 2.50003C162.896 2.47814 192.333 13.1696 215.642 32.5625C219.038 35.3883 219.175 40.473 216.146 43.6893C213.117 46.9056 208.07 47.0328 204.65 44.2364C184.331 27.6264 158.825 18.4811 132.418 18.5C103.336 18.5209 75.3617 29.6556 54.2199 49.6252C33.0781 69.5949 20.3677 96.8896 18.6899 125.923C17.1664 152.286 24.8437 178.272 40.269 199.504C42.866 203.078 42.4515 208.109 39.0678 210.95Z"/>
</mask>
<path d="M39.0678 210.95C35.6841 213.791 30.6156 213.365 27.9878 209.813C9.95448 185.437 0.95755 155.438 2.71652 125C4.6298 91.8916 19.1241 60.7661 43.2332 37.9937C67.3423 15.2213 99.243 2.52384 132.407 2.50003C162.896 2.47814 192.333 13.1696 215.642 32.5625C219.038 35.3883 219.175 40.473 216.146 43.6893C213.117 46.9056 208.07 47.0328 204.65 44.2364C184.331 27.6264 158.825 18.4811 132.418 18.5C103.336 18.5209 75.3617 29.6556 54.2199 49.6252C33.0781 69.5949 20.3677 96.8896 18.6899 125.923C17.1664 152.286 24.8437 178.272 40.269 199.504C42.866 203.078 42.4515 208.109 39.0678 210.95Z" fill="#F5C518"/>
<path d="M39.0678 210.95C35.6841 213.791 30.6156 213.365 27.9878 209.813C9.95448 185.437 0.95755 155.438 2.71652 125C4.6298 91.8916 19.1241 60.7661 43.2332 37.9937C67.3423 15.2213 99.243 2.52384 132.407 2.50003C162.896 2.47814 192.333 13.1696 215.642 32.5625C219.038 35.3883 219.175 40.473 216.146 43.6893C213.117 46.9056 208.07 47.0328 204.65 44.2364C184.331 27.6264 158.825 18.4811 132.418 18.5C103.336 18.5209 75.3617 29.6556 54.2199 49.6252C33.0781 69.5949 20.3677 96.8896 18.6899 125.923C17.1664 152.286 24.8437 178.272 40.269 199.504C42.866 203.078 42.4515 208.109 39.0678 210.95Z" stroke="#232324" stroke-width="4" mask="url(#path-3-outside-2_1091_2224)"/>
<mask id="path-4-outside-3_1091_2224" maskUnits="userSpaceOnUse" x="-0.5" y="38.5" width="54" height="177" fill="black">
<rect fill="white" x="-0.5" y="38.5" width="54" height="177"/>
<path d="M39.0426 210.92C35.658 213.76 30.5896 213.332 27.963 209.779C9.94012 185.401 0.952747 155.405 2.71818 124.971C4.48362 94.538 16.8792 65.7823 37.6 43.6516C40.6198 40.4264 45.7037 40.5871 48.7372 43.7994C51.7707 47.0117 51.6023 52.0569 48.6105 55.3081C30.8425 74.6164 20.2204 99.5396 18.6913 125.898C17.1623 152.256 24.8313 178.241 40.2474 199.474C42.8433 203.049 42.4272 208.08 39.0426 210.92Z"/>
</mask>
<path d="M39.0426 210.92C35.658 213.76 30.5896 213.332 27.963 209.779C9.94012 185.401 0.952747 155.405 2.71818 124.971C4.48362 94.538 16.8792 65.7823 37.6 43.6516C40.6198 40.4264 45.7037 40.5871 48.7372 43.7994C51.7707 47.0117 51.6023 52.0569 48.6105 55.3081C30.8425 74.6164 20.2204 99.5396 18.6913 125.898C17.1623 152.256 24.8313 178.241 40.2474 199.474C42.8433 203.049 42.4272 208.08 39.0426 210.92Z" fill="#306FFF"/>
<path d="M39.0426 210.92C35.658 213.76 30.5896 213.332 27.963 209.779C9.94012 185.401 0.952747 155.405 2.71818 124.971C4.48362 94.538 16.8792 65.7823 37.6 43.6516C40.6198 40.4264 45.7037 40.5871 48.7372 43.7994C51.7707 47.0117 51.6023 52.0569 48.6105 55.3081C30.8425 74.6164 20.2204 99.5396 18.6913 125.898C17.1623 152.256 24.8313 178.241 40.2474 199.474C42.8433 203.049 42.4272 208.08 39.0426 210.92Z" stroke="#232324" stroke-width="4" mask="url(#path-4-outside-3_1091_2224)"/>
<path d="M50.5012 202.564L56.6296 197.422" stroke="#929293"/>
<path d="M28.2378 158.87L36.0002 156.935" stroke="#929293"/>
<path d="M48.1069 65.3926L54.411 70.3179" stroke="#929293"/>
<path d="M86.2175 34.5312L89.7245 41.7216" stroke="#929293"/>
<path d="M134 23.5V31.5" stroke="#929293"/>
<path d="M181.782 34.5312L178.275 41.7216" stroke="#929293"/>
<path d="M219.893 65.3926L213.589 70.3179" stroke="#929293"/>
<path d="M240.618 109.838L232.793 111.501" stroke="#929293"/>
<path d="M239.762 158.87L232 156.935" stroke="#929293"/>
<path d="M217.499 202.564L211.371 197.422" stroke="#929293"/>
<path d="M43.8704 193.5L47.9589 190.659" stroke="#5F5F60"/>
<path d="M38.623 185.169L42.9523 182.71" stroke="#5F5F60"/>
<path d="M34.1521 176.398L38.6864 174.342" stroke="#5F5F60"/>
<path d="M30.4951 167.256L35.1972 165.619" stroke="#5F5F60"/>
<path d="M25.7356 148.171L30.656 147.409" stroke="#5F5F60"/>
<path d="M24.6719 138.383L29.6411 138.07" stroke="#5F5F60"/>
<path d="M24.5 128.539L29.4771 128.679" stroke="#5F5F60"/>
<path d="M25.2214 118.721L30.1654 119.31" stroke="#5F5F60"/>
<path d="M29.3118 99.4805L34.0681 100.952" stroke="#5F5F60"/>
<path d="M32.6477 90.2168L37.251 92.1137" stroke="#5F5F60"/>
<path d="M36.8093 81.2939L41.2217 83.6001" stroke="#5F5F60"/>
<path d="M41.7629 72.7852L45.9481 75.4817" stroke="#5F5F60"/>
<path d="M53.8762 57.2852L57.5058 60.6927" stroke="#5F5F60"/>
<path d="M60.936 50.4209L64.2417 54.1433" stroke="#5F5F60"/>
<path d="M68.5891 44.2256L71.5437 48.2322" stroke="#5F5F60"/>
<path d="M76.7722 38.748L79.3515 43.0059" stroke="#5F5F60"/>
<path d="M94.4561 30.126L96.2241 34.7793" stroke="#5F5F60"/>
<path d="M103.811 27.0508L105.15 31.8452" stroke="#5F5F60"/>
<path d="M113.406 24.8359L114.305 29.7319" stroke="#5F5F60"/>
<path d="M123.163 23.5L123.614 28.4573" stroke="#5F5F60"/>
<path d="M142.837 23.5L142.386 28.4573" stroke="#5F5F60"/>
<path d="M152.594 24.8359L151.695 29.7319" stroke="#5F5F60"/>
<path d="M162.189 27.0508L160.85 31.8452" stroke="#5F5F60"/>
<path d="M171.544 30.126L169.776 34.7793" stroke="#5F5F60"/>
<path d="M189.228 38.748L186.648 43.0059" stroke="#5F5F60"/>
<path d="M197.411 44.2256L194.457 48.2322" stroke="#5F5F60"/>
<path d="M205.064 50.4209L201.758 54.1433" stroke="#5F5F60"/>
<path d="M212.124 57.2852L208.494 60.6927" stroke="#5F5F60"/>
<path d="M224.237 72.7852L220.052 75.4817" stroke="#5F5F60"/>
<path d="M229.19 81.2939L224.778 83.6001" stroke="#5F5F60"/>
<path d="M233.352 90.2168L228.749 92.1137" stroke="#5F5F60"/>
<path d="M236.688 99.4805L231.932 100.952" stroke="#5F5F60"/>
<path d="M240.779 118.721L235.835 119.31" stroke="#5F5F60"/>
<path d="M241.5 128.539L236.523 128.679" stroke="#5F5F60"/>
<path d="M241.328 138.383L236.359 138.07" stroke="#5F5F60"/>
<path d="M240.265 148.171L235.344 147.409" stroke="#5F5F60"/>
<path d="M235.505 167.256L230.803 165.619" stroke="#5F5F60"/>
<path d="M231.848 176.398L227.313 174.342" stroke="#5F5F60"/>
<path d="M227.377 185.169L223.048 182.71" stroke="#5F5F60"/>
<path d="M222.129 193.5L218.041 190.659" stroke="#5F5F60"/>
<path d="M63.2903 193.679C62.6503 193.679 62.0983 193.503 61.6343 193.151C61.1783 192.799 60.8263 192.303 60.5783 191.663C60.3303 191.015 60.2063 190.247 60.2063 189.359C60.2063 188.471 60.3303 187.707 60.5783 187.067C60.8263 186.419 61.1783 185.919 61.6343 185.567C62.0983 185.215 62.6503 185.039 63.2903 185.039C63.9303 185.039 64.4823 185.215 64.9463 185.567C65.4103 185.919 65.7663 186.419 66.0143 187.067C66.2623 187.707 66.3863 188.471 66.3863 189.359C66.3863 190.247 66.2623 191.015 66.0143 191.663C65.7663 192.303 65.4103 192.799 64.9463 193.151C64.4823 193.503 63.9303 193.679 63.2903 193.679ZM63.2903 192.503C63.8743 192.503 64.3263 192.231 64.6463 191.687C64.9663 191.135 65.1263 190.359 65.1263 189.359C65.1263 188.359 64.9663 187.587 64.6463 187.043C64.3263 186.491 63.8743 186.215 63.2903 186.215C62.7063 186.215 62.2543 186.491 61.9343 187.043C61.6143 187.587 61.4543 188.359 61.4543 189.359C61.4543 190.359 61.6143 191.135 61.9343 191.687C62.2543 192.231 62.7063 192.503 63.2903 192.503Z" fill="white" fill-opacity="0.5"/>
<path d="M40.6732 156.598V149.782L41.1172 150.118L39.4612 150.994L39.1132 149.866L41.3572 148.666H41.9812V156.598H40.6732ZM39.3412 157.186V155.938H43.3492V157.186H39.3412ZM47.7052 157.306C47.0652 157.306 46.5132 157.13 46.0492 156.778C45.5932 156.426 45.2412 155.93 44.9932 155.29C44.7452 154.642 44.6212 153.874 44.6212 152.986C44.6212 152.098 44.7452 151.334 44.9932 150.694C45.2412 150.046 45.5932 149.546 46.0492 149.194C46.5132 148.842 47.0652 148.666 47.7052 148.666C48.3452 148.666 48.8972 148.842 49.3612 149.194C49.8252 149.546 50.1812 150.046 50.4292 150.694C50.6772 151.334 50.8012 152.098 50.8012 152.986C50.8012 153.874 50.6772 154.642 50.4292 155.29C50.1812 155.93 49.8252 156.426 49.3612 156.778C48.8972 157.13 48.3452 157.306 47.7052 157.306ZM47.7052 156.13C48.2892 156.13 48.7412 155.858 49.0612 155.314C49.3812 154.762 49.5412 153.986 49.5412 152.986C49.5412 151.986 49.3812 151.214 49.0612 150.67C48.7412 150.118 48.2892 149.842 47.7052 149.842C47.1212 149.842 46.6692 150.118 46.3492 150.67C46.0292 151.214 45.8692 151.986 45.8692 152.986C45.8692 153.986 46.0292 154.762 46.3492 155.314C46.6692 155.858 47.1212 156.13 47.7052 156.13Z" fill="white" fill-opacity="0.5"/>
<path d="M37.6835 116.37L37.2875 115.386L39.8555 112.494C39.9915 112.35 40.1315 112.186 40.2755 112.002C40.4275 111.81 40.5715 111.614 40.7075 111.414C40.8435 111.214 40.9515 111.018 41.0315 110.826C41.1195 110.626 41.1635 110.438 41.1635 110.262C41.1635 110.006 41.1115 109.79 41.0075 109.614C40.9115 109.43 40.7675 109.29 40.5755 109.194C40.3915 109.098 40.1675 109.05 39.9035 109.05C39.6715 109.05 39.4435 109.118 39.2195 109.254C38.9955 109.39 38.7915 109.582 38.6075 109.83C38.4235 110.078 38.2795 110.366 38.1755 110.694L37.1795 110.07C37.3155 109.606 37.5195 109.21 37.7915 108.882C38.0715 108.546 38.4035 108.29 38.7875 108.114C39.1795 107.938 39.6035 107.85 40.0595 107.85C40.5315 107.85 40.9515 107.95 41.3195 108.15C41.6875 108.342 41.9755 108.614 42.1835 108.966C42.3915 109.31 42.4955 109.71 42.4955 110.166C42.4955 110.35 42.4755 110.538 42.4355 110.73C42.3955 110.922 42.3315 111.122 42.2435 111.33C42.1555 111.53 42.0435 111.742 41.9075 111.966C41.7715 112.182 41.6075 112.41 41.4155 112.65C41.2315 112.89 41.0195 113.142 40.7795 113.406L38.8715 115.482L38.6315 115.122H42.7595V116.37H37.6835ZM46.7777 116.49C46.1377 116.49 45.5857 116.314 45.1217 115.962C44.6657 115.61 44.3137 115.114 44.0657 114.474C43.8177 113.826 43.6937 113.058 43.6937 112.17C43.6937 111.282 43.8177 110.518 44.0657 109.878C44.3137 109.23 44.6657 108.73 45.1217 108.378C45.5857 108.026 46.1377 107.85 46.7777 107.85C47.4177 107.85 47.9697 108.026 48.4337 108.378C48.8977 108.73 49.2537 109.23 49.5017 109.878C49.7497 110.518 49.8737 111.282 49.8737 112.17C49.8737 113.058 49.7497 113.826 49.5017 114.474C49.2537 115.114 48.8977 115.61 48.4337 115.962C47.9697 116.314 47.4177 116.49 46.7777 116.49ZM46.7777 115.314C47.3617 115.314 47.8137 115.042 48.1337 114.498C48.4537 113.946 48.6137 113.17 48.6137 112.17C48.6137 111.17 48.4537 110.398 48.1337 109.854C47.8137 109.302 47.3617 109.026 46.7777 109.026C46.1937 109.026 45.7417 109.302 45.4217 109.854C45.1017 110.398 44.9417 111.17 44.9417 112.17C44.9417 113.17 45.1017 113.946 45.4217 114.498C45.7417 115.042 46.1937 115.314 46.7777 115.314Z" fill="white" fill-opacity="0.5"/>
<path d="M57.4912 79.493C56.8992 79.493 56.3832 79.357 55.9432 79.085C55.5112 78.813 55.1032 78.357 54.7192 77.717L55.7272 77.081C55.9272 77.377 56.1232 77.621 56.3152 77.813C56.5152 77.997 56.7192 78.133 56.9272 78.221C57.1352 78.309 57.3552 78.353 57.5872 78.353C57.8672 78.353 58.1272 78.285 58.3672 78.149C58.6072 78.005 58.7992 77.809 58.9432 77.561C59.0872 77.313 59.1592 77.033 59.1592 76.721C59.1592 76.409 59.1032 76.145 58.9912 75.929C58.8792 75.705 58.7152 75.537 58.4992 75.425C58.2832 75.305 58.0272 75.245 57.7312 75.245C57.5952 75.245 57.4512 75.261 57.2992 75.293C57.1552 75.317 56.9992 75.357 56.8312 75.413C56.6632 75.461 56.4792 75.525 56.2792 75.605L55.9192 74.657L58.5112 71.801L58.7632 72.173H55.1872V70.973H59.9992L60.2392 71.453L57.4912 74.501L57.1912 74.189C57.2552 74.157 57.3592 74.129 57.5032 74.105C57.6552 74.073 57.7792 74.057 57.8752 74.057C58.2272 74.057 58.5552 74.125 58.8592 74.261C59.1712 74.389 59.4392 74.573 59.6632 74.813C59.8952 75.045 60.0752 75.321 60.2032 75.641C60.3392 75.953 60.4072 76.289 60.4072 76.649C60.4072 77.193 60.2752 77.681 60.0112 78.113C59.7552 78.537 59.4072 78.873 58.9672 79.121C58.5272 79.369 58.0352 79.493 57.4912 79.493ZM64.4667 79.493C63.8267 79.493 63.2747 79.317 62.8107 78.965C62.3547 78.613 62.0027 78.117 61.7547 77.477C61.5067 76.829 61.3827 76.061 61.3827 75.173C61.3827 74.285 61.5067 73.521 61.7547 72.881C62.0027 72.233 62.3547 71.733 62.8107 71.381C63.2747 71.029 63.8267 70.853 64.4667 70.853C65.1067 70.853 65.6587 71.029 66.1227 71.381C66.5867 71.733 66.9427 72.233 67.1907 72.881C67.4387 73.521 67.5627 74.285 67.5627 75.173C67.5627 76.061 67.4387 76.829 67.1907 77.477C66.9427 78.117 66.5867 78.613 66.1227 78.965C65.6587 79.317 65.1067 79.493 64.4667 79.493ZM64.4667 78.317C65.0507 78.317 65.5027 78.045 65.8227 77.501C66.1427 76.949 66.3027 76.173 66.3027 75.173C66.3027 74.173 66.1427 73.401 65.8227 72.857C65.5027 72.305 65.0507 72.029 64.4667 72.029C63.8827 72.029 63.4307 72.305 63.1107 72.857C62.7907 73.401 62.6307 74.173 62.6307 75.173C62.6307 76.173 62.7907 76.949 63.1107 77.501C63.4307 78.045 63.8827 78.317 64.4667 78.317Z" fill="white" fill-opacity="0.5"/>
<path d="M90.4716 53.6836V46.9156L90.7716 46.9876L88.0116 50.3596L87.9636 50.2156H93.1836V51.4036H87.1596L86.6076 50.3236L90.7236 45.2836H91.7196V53.6836H90.4716ZM97.3251 53.8036C96.6851 53.8036 96.1331 53.6276 95.6691 53.2756C95.2131 52.9236 94.8611 52.4276 94.6131 51.7876C94.3651 51.1396 94.2411 50.3716 94.2411 49.4836C94.2411 48.5956 94.3651 47.8316 94.6131 47.1916C94.8611 46.5436 95.2131 46.0436 95.6691 45.6916C96.1331 45.3396 96.6851 45.1636 97.3251 45.1636C97.9651 45.1636 98.5171 45.3396 98.9811 45.6916C99.4451 46.0436 99.8011 46.5436 100.049 47.1916C100.297 47.8316 100.421 48.5956 100.421 49.4836C100.421 50.3716 100.297 51.1396 100.049 51.7876C99.8011 52.4276 99.4451 52.9236 98.9811 53.2756C98.5171 53.6276 97.9651 53.8036 97.3251 53.8036ZM97.3251 52.6276C97.9091 52.6276 98.3611 52.3556 98.6811 51.8116C99.0011 51.2596 99.1611 50.4836 99.1611 49.4836C99.1611 48.4836 99.0011 47.7116 98.6811 47.1676C98.3611 46.6156 97.9091 46.3396 97.3251 46.3396C96.7411 46.3396 96.2891 46.6156 95.9691 47.1676C95.6491 47.7116 95.4891 48.4836 95.4891 49.4836C95.4891 50.4836 95.6491 51.2596 95.9691 51.8116C96.2891 52.3556 96.7411 52.6276 97.3251 52.6276Z" fill="white" fill-opacity="0.5"/>
<path d="M129.029 44.584C128.477 44.584 127.977 44.46 127.529 44.212C127.081 43.956 126.709 43.592 126.413 43.12L127.133 42.316C127.509 42.732 127.837 43.016 128.117 43.168C128.397 43.32 128.701 43.396 129.029 43.396C129.357 43.396 129.653 43.324 129.917 43.18C130.181 43.036 130.389 42.84 130.541 42.592C130.701 42.344 130.781 42.068 130.781 41.764C130.781 41.444 130.705 41.16 130.553 40.912C130.409 40.656 130.213 40.456 129.965 40.312C129.717 40.16 129.437 40.084 129.125 40.084C128.973 40.084 128.829 40.096 128.693 40.12C128.557 40.136 128.393 40.18 128.201 40.252C128.009 40.324 127.757 40.436 127.445 40.588L126.761 39.664L127.253 36.1H131.789V37.3H128.069L128.321 37.072L127.925 39.736L127.625 39.388C127.705 39.308 127.841 39.232 128.033 39.16C128.225 39.08 128.437 39.016 128.669 38.968C128.909 38.912 129.137 38.884 129.353 38.884C129.865 38.884 130.321 39.004 130.721 39.244C131.129 39.476 131.449 39.8 131.681 40.216C131.921 40.632 132.041 41.108 132.041 41.644C132.041 42.196 131.909 42.696 131.645 43.144C131.381 43.584 131.021 43.936 130.565 44.2C130.109 44.456 129.597 44.584 129.029 44.584ZM136.402 44.62C135.762 44.62 135.21 44.444 134.746 44.092C134.29 43.74 133.938 43.244 133.69 42.604C133.442 41.956 133.318 41.188 133.318 40.3C133.318 39.412 133.442 38.648 133.69 38.008C133.938 37.36 134.29 36.86 134.746 36.508C135.21 36.156 135.762 35.98 136.402 35.98C137.042 35.98 137.594 36.156 138.058 36.508C138.522 36.86 138.878 37.36 139.126 38.008C139.374 38.648 139.498 39.412 139.498 40.3C139.498 41.188 139.374 41.956 139.126 42.604C138.878 43.244 138.522 43.74 138.058 44.092C137.594 44.444 137.042 44.62 136.402 44.62ZM136.402 43.444C136.986 43.444 137.438 43.172 137.758 42.628C138.078 42.076 138.238 41.3 138.238 40.3C138.238 39.3 138.078 38.528 137.758 37.984C137.438 37.432 136.986 37.156 136.402 37.156C135.818 37.156 135.366 37.432 135.046 37.984C134.726 38.528 134.566 39.3 134.566 40.3C134.566 41.3 134.726 42.076 135.046 42.628C135.366 43.172 135.818 43.444 136.402 43.444Z" fill="white" fill-opacity="0.5"/>
<path d="M168.799 53.6836C168.383 53.6836 167.995 53.6116 167.635 53.4676C167.283 53.3156 166.975 53.1076 166.711 52.8436C166.455 52.5796 166.251 52.2676 166.099 51.9076C165.955 51.5476 165.883 51.1516 165.883 50.7196C165.883 50.5036 165.911 50.2636 165.967 49.9996C166.031 49.7276 166.123 49.4316 166.243 49.1116C166.371 48.7916 166.523 48.4556 166.699 48.1036C166.875 47.7436 167.079 47.3716 167.311 46.9876L168.403 45.1396H169.663L169.711 45.2596L168.391 47.4796C168.151 47.8876 167.935 48.2756 167.743 48.6436C167.559 49.0116 167.403 49.3596 167.275 49.6876C167.147 50.0076 167.051 50.2996 166.987 50.5636L166.699 49.3276C166.851 49.0796 167.015 48.8636 167.191 48.6796C167.367 48.4876 167.555 48.3276 167.755 48.1996C167.963 48.0716 168.179 47.9756 168.403 47.9116C168.627 47.8476 168.859 47.8156 169.099 47.8156C169.563 47.8156 169.987 47.9436 170.371 48.1996C170.763 48.4476 171.075 48.7796 171.307 49.1956C171.547 49.6116 171.667 50.0676 171.667 50.5636C171.667 51.1636 171.543 51.6996 171.295 52.1716C171.055 52.6356 170.719 53.0036 170.287 53.2756C169.855 53.5476 169.359 53.6836 168.799 53.6836ZM168.799 52.4836C169.111 52.4836 169.387 52.4116 169.627 52.2676C169.875 52.1156 170.067 51.9076 170.203 51.6436C170.347 51.3716 170.419 51.0636 170.419 50.7196C170.419 50.4236 170.347 50.1476 170.203 49.8916C170.059 49.6276 169.867 49.4156 169.627 49.2556C169.387 49.0956 169.119 49.0156 168.823 49.0156C168.495 49.0156 168.203 49.0916 167.947 49.2436C167.691 49.3956 167.491 49.5996 167.347 49.8556C167.203 50.1116 167.131 50.3956 167.131 50.7076C167.131 51.0436 167.203 51.3476 167.347 51.6196C167.491 51.8836 167.687 52.0956 167.935 52.2556C168.183 52.4076 168.471 52.4836 168.799 52.4836ZM175.718 53.8036C175.078 53.8036 174.526 53.6276 174.062 53.2756C173.606 52.9236 173.254 52.4276 173.006 51.7876C172.758 51.1396 172.634 50.3716 172.634 49.4836C172.634 48.5956 172.758 47.8316 173.006 47.1916C173.254 46.5436 173.606 46.0436 174.062 45.6916C174.526 45.3396 175.078 45.1636 175.718 45.1636C176.358 45.1636 176.91 45.3396 177.374 45.6916C177.838 46.0436 178.194 46.5436 178.442 47.1916C178.69 47.8316 178.814 48.5956 178.814 49.4836C178.814 50.3716 178.69 51.1396 178.442 51.7876C178.194 52.4276 177.838 52.9236 177.374 53.2756C176.91 53.6276 176.358 53.8036 175.718 53.8036ZM175.718 52.6276C176.302 52.6276 176.754 52.3556 177.074 51.8116C177.394 51.2596 177.554 50.4836 177.554 49.4836C177.554 48.4836 177.394 47.7116 177.074 47.1676C176.754 46.6156 176.302 46.3396 175.718 46.3396C175.134 46.3396 174.682 46.6156 174.362 47.1676C174.042 47.7116 173.882 48.4836 173.882 49.4836C173.882 50.4836 174.042 51.2596 174.362 51.8116C174.682 52.3556 175.134 52.6276 175.718 52.6276Z" fill="white" fill-opacity="0.5"/>
<path d="M198.648 79.373L202.128 71.789L202.272 72.173H198.024V70.973H203.22L203.388 71.801L200.04 79.373H198.648ZM207.444 79.493C206.804 79.493 206.252 79.317 205.788 78.965C205.332 78.613 204.98 78.117 204.732 77.477C204.484 76.829 204.36 76.061 204.36 75.173C204.36 74.285 204.484 73.521 204.732 72.881C204.98 72.233 205.332 71.733 205.788 71.381C206.252 71.029 206.804 70.853 207.444 70.853C208.084 70.853 208.636 71.029 209.1 71.381C209.564 71.733 209.92 72.233 210.168 72.881C210.416 73.521 210.54 74.285 210.54 75.173C210.54 76.061 210.416 76.829 210.168 77.477C209.92 78.117 209.564 78.613 209.1 78.965C208.636 79.317 208.084 79.493 207.444 79.493ZM207.444 78.317C208.028 78.317 208.48 78.045 208.8 77.501C209.12 76.949 209.28 76.173 209.28 75.173C209.28 74.173 209.12 73.401 208.8 72.857C208.48 72.305 208.028 72.029 207.444 72.029C206.86 72.029 206.408 72.305 206.088 72.857C205.768 73.401 205.608 74.173 205.608 75.173C205.608 76.173 205.768 76.949 206.088 77.501C206.408 78.045 206.86 78.317 207.444 78.317Z" fill="white" fill-opacity="0.5"/>
<path d="M218.35 116.406C217.83 116.406 217.354 116.298 216.922 116.082C216.498 115.858 216.158 115.562 215.902 115.194C215.646 114.826 215.518 114.418 215.518 113.97C215.518 113.722 215.55 113.49 215.614 113.274C215.686 113.05 215.79 112.846 215.926 112.662C216.07 112.478 216.242 112.31 216.442 112.158C216.642 112.006 216.874 111.87 217.138 111.75L217.066 112.002C216.858 111.922 216.67 111.826 216.502 111.714C216.342 111.594 216.202 111.458 216.082 111.306C215.962 111.154 215.87 110.99 215.806 110.814C215.75 110.638 215.722 110.454 215.722 110.262C215.722 109.838 215.838 109.454 216.07 109.11C216.31 108.766 216.626 108.49 217.018 108.282C217.418 108.074 217.862 107.97 218.35 107.97C218.838 107.97 219.278 108.074 219.67 108.282C220.07 108.49 220.386 108.766 220.618 109.11C220.858 109.454 220.978 109.838 220.978 110.262C220.978 110.454 220.946 110.638 220.882 110.814C220.826 110.99 220.742 111.15 220.63 111.294C220.518 111.438 220.374 111.57 220.198 111.69C220.03 111.81 219.838 111.914 219.622 112.002L219.586 111.798C219.826 111.894 220.042 112.018 220.234 112.17C220.434 112.322 220.606 112.494 220.75 112.686C220.894 112.878 221.002 113.082 221.074 113.298C221.154 113.514 221.194 113.738 221.194 113.97C221.194 114.426 221.066 114.838 220.81 115.206C220.554 115.574 220.21 115.866 219.778 116.082C219.354 116.298 218.878 116.406 218.35 116.406ZM218.35 115.206C218.646 115.206 218.91 115.15 219.142 115.038C219.382 114.926 219.57 114.774 219.706 114.582C219.842 114.39 219.91 114.17 219.91 113.922C219.91 113.658 219.842 113.426 219.706 113.226C219.57 113.018 219.382 112.854 219.142 112.734C218.91 112.614 218.646 112.554 218.35 112.554C218.054 112.554 217.79 112.614 217.558 112.734C217.326 112.854 217.142 113.018 217.006 113.226C216.87 113.426 216.802 113.658 216.802 113.922C216.802 114.162 216.87 114.378 217.006 114.57C217.142 114.762 217.326 114.918 217.558 115.038C217.79 115.15 218.054 115.206 218.35 115.206ZM218.35 111.402C218.606 111.402 218.834 111.354 219.034 111.258C219.242 111.162 219.402 111.034 219.514 110.874C219.634 110.706 219.694 110.514 219.694 110.298C219.694 110.082 219.634 109.89 219.514 109.722C219.402 109.554 219.242 109.422 219.034 109.326C218.834 109.222 218.606 109.17 218.35 109.17C218.094 109.17 217.862 109.222 217.654 109.326C217.454 109.422 217.294 109.554 217.174 109.722C217.062 109.89 217.006 110.082 217.006 110.298C217.006 110.514 217.062 110.706 217.174 110.874C217.294 111.034 217.454 111.162 217.654 111.258C217.862 111.354 218.094 111.402 218.35 111.402ZM225.467 116.49C224.827 116.49 224.275 116.314 223.811 115.962C223.355 115.61 223.003 115.114 222.755 114.474C222.507 113.826 222.383 113.058 222.383 112.17C222.383 111.282 222.507 110.518 222.755 109.878C223.003 109.23 223.355 108.73 223.811 108.378C224.275 108.026 224.827 107.85 225.467 107.85C226.107 107.85 226.659 108.026 227.123 108.378C227.587 108.73 227.943 109.23 228.191 109.878C228.439 110.518 228.563 111.282 228.563 112.17C228.563 113.058 228.439 113.826 228.191 114.474C227.943 115.114 227.587 115.61 227.123 115.962C226.659 116.314 226.107 116.49 225.467 116.49ZM225.467 115.314C226.051 115.314 226.503 115.042 226.823 114.498C227.143 113.946 227.303 113.17 227.303 112.17C227.303 111.17 227.143 110.398 226.823 109.854C226.503 109.302 226.051 109.026 225.467 109.026C224.883 109.026 224.431 109.302 224.111 109.854C223.791 110.398 223.631 111.17 223.631 112.17C223.631 113.17 223.791 113.946 224.111 114.498C224.431 115.042 224.883 115.314 225.467 115.314Z" fill="white" fill-opacity="0.5"/>
<path d="M216.573 157.186L216.525 157.066L219.021 151.762L219.057 152.758C218.913 152.998 218.753 153.21 218.577 153.394C218.409 153.578 218.221 153.738 218.013 153.874C217.813 154.002 217.605 154.102 217.389 154.174C217.173 154.238 216.953 154.27 216.729 154.27C216.273 154.27 215.853 154.15 215.469 153.91C215.085 153.67 214.777 153.35 214.545 152.95C214.313 152.55 214.197 152.114 214.197 151.642C214.197 151.074 214.325 150.566 214.581 150.118C214.837 149.662 215.185 149.302 215.625 149.038C216.073 148.774 216.573 148.642 217.125 148.642C217.525 148.642 217.901 148.714 218.253 148.858C218.605 149.002 218.913 149.206 219.177 149.47C219.441 149.726 219.649 150.026 219.801 150.37C219.953 150.706 220.029 151.066 220.029 151.45C220.029 151.65 220.009 151.866 219.969 152.098C219.929 152.322 219.861 152.578 219.765 152.866C219.677 153.146 219.557 153.47 219.405 153.838C219.253 154.198 219.065 154.618 218.841 155.098L217.845 157.186H216.573ZM217.005 153.07C217.317 153.07 217.597 153.002 217.845 152.866C218.093 152.722 218.285 152.534 218.421 152.302C218.565 152.062 218.637 151.794 218.637 151.498C218.637 151.186 218.569 150.906 218.433 150.658C218.297 150.402 218.105 150.202 217.857 150.058C217.617 149.914 217.341 149.842 217.029 149.842C216.741 149.842 216.485 149.914 216.261 150.058C216.037 150.194 215.857 150.386 215.721 150.634C215.593 150.874 215.529 151.158 215.529 151.486C215.529 151.766 215.593 152.026 215.721 152.266C215.857 152.506 216.037 152.702 216.261 152.854C216.485 152.998 216.733 153.07 217.005 153.07ZM224.083 157.306C223.443 157.306 222.891 157.13 222.427 156.778C221.971 156.426 221.619 155.93 221.371 155.29C221.123 154.642 220.999 153.874 220.999 152.986C220.999 152.098 221.123 151.334 221.371 150.694C221.619 150.046 221.971 149.546 222.427 149.194C222.891 148.842 223.443 148.666 224.083 148.666C224.723 148.666 225.275 148.842 225.739 149.194C226.203 149.546 226.559 150.046 226.807 150.694C227.055 151.334 227.179 152.098 227.179 152.986C227.179 153.874 227.055 154.642 226.807 155.29C226.559 155.93 226.203 156.426 225.739 156.778C225.275 157.13 224.723 157.306 224.083 157.306ZM224.083 156.13C224.667 156.13 225.119 155.858 225.439 155.314C225.759 154.762 225.919 153.986 225.919 152.986C225.919 151.986 225.759 151.214 225.439 150.67C225.119 150.118 224.667 149.842 224.083 149.842C223.499 149.842 223.047 150.118 222.727 150.67C222.407 151.214 222.247 151.986 222.247 152.986C222.247 153.986 222.407 154.762 222.727 155.314C223.047 155.858 223.499 156.13 224.083 156.13Z" fill="white" fill-opacity="0.5"/>
<path d="M195.017 192.971V186.155L195.461 186.491L193.805 187.367L193.457 186.239L195.701 185.039H196.325V192.971H195.017ZM193.685 193.559V192.311H197.693V193.559H193.685ZM202.049 193.679C201.409 193.679 200.857 193.503 200.393 193.151C199.937 192.799 199.585 192.303 199.337 191.663C199.089 191.015 198.965 190.247 198.965 189.359C198.965 188.471 199.089 187.707 199.337 187.067C199.585 186.419 199.937 185.919 200.393 185.567C200.857 185.215 201.409 185.039 202.049 185.039C202.689 185.039 203.241 185.215 203.705 185.567C204.169 185.919 204.525 186.419 204.773 187.067C205.021 187.707 205.145 188.471 205.145 189.359C205.145 190.247 205.021 191.015 204.773 191.663C204.525 192.303 204.169 192.799 203.705 193.151C203.241 193.503 202.689 193.679 202.049 193.679ZM202.049 192.503C202.633 192.503 203.085 192.231 203.405 191.687C203.725 191.135 203.885 190.359 203.885 189.359C203.885 188.359 203.725 187.587 203.405 187.043C203.085 186.491 202.633 186.215 202.049 186.215C201.465 186.215 201.013 186.491 200.693 187.043C200.373 187.587 200.213 188.359 200.213 189.359C200.213 190.359 200.373 191.135 200.693 191.687C201.013 192.231 201.465 192.503 202.049 192.503ZM209.338 193.679C208.698 193.679 208.146 193.503 207.682 193.151C207.226 192.799 206.874 192.303 206.626 191.663C206.378 191.015 206.254 190.247 206.254 189.359C206.254 188.471 206.378 187.707 206.626 187.067C206.874 186.419 207.226 185.919 207.682 185.567C208.146 185.215 208.698 185.039 209.338 185.039C209.978 185.039 210.53 185.215 210.994 185.567C211.458 185.919 211.814 186.419 212.062 187.067C212.31 187.707 212.434 188.471 212.434 189.359C212.434 190.247 212.31 191.015 212.062 191.663C211.814 192.303 211.458 192.799 210.994 193.151C210.53 193.503 209.978 193.679 209.338 193.679ZM209.338 192.503C209.922 192.503 210.374 192.231 210.694 191.687C211.014 191.135 211.174 190.359 211.174 189.359C211.174 188.359 211.014 187.587 210.694 187.043C210.374 186.491 209.922 186.215 209.338 186.215C208.754 186.215 208.302 186.491 207.982 187.043C207.662 187.587 207.502 188.359 207.502 189.359C207.502 190.359 207.662 191.135 207.982 191.687C208.302 192.231 208.754 192.503 209.338 192.503Z" fill="white" fill-opacity="0.5"/>
<path d="M179.833 109.321L133.5 132.926" stroke="#EB303D" stroke-width="4" stroke-linecap="round"/>
<circle cx="134" cy="132.5" r="7" fill="white" fill-opacity="0.9" stroke="#EB303D" stroke-width="4"/>
<path d="M105.933 197.5V183.5H108.053L113.153 191.8L112.133 191.78L117.293 183.5H119.293V197.5H117.133V191.76C117.133 190.56 117.159 189.48 117.213 188.52C117.279 187.56 117.386 186.607 117.533 185.66L117.813 186.4L113.233 193.48H111.913L107.473 186.48L107.693 185.66C107.839 186.553 107.939 187.473 107.993 188.42C108.059 189.353 108.093 190.467 108.093 191.76V197.5H105.933ZM123.218 197.5V183.5H129.058C129.951 183.5 130.704 183.633 131.318 183.9C131.931 184.167 132.391 184.567 132.698 185.1C133.018 185.62 133.178 186.26 133.178 187.02C133.178 187.78 132.964 188.427 132.538 188.96C132.124 189.493 131.544 189.86 130.798 190.06V189.66C131.424 189.793 131.971 190.033 132.438 190.38C132.904 190.713 133.264 191.133 133.518 191.64C133.784 192.147 133.918 192.727 133.918 193.38C133.918 194.047 133.811 194.64 133.598 195.16C133.398 195.667 133.091 196.093 132.678 196.44C132.278 196.787 131.791 197.053 131.218 197.24C130.644 197.413 129.991 197.5 129.258 197.5H123.218ZM125.378 195.42H129.138C129.684 195.42 130.144 195.34 130.518 195.18C130.904 195.02 131.198 194.787 131.398 194.48C131.611 194.16 131.718 193.78 131.718 193.34C131.718 192.927 131.604 192.573 131.378 192.28C131.164 191.987 130.858 191.767 130.458 191.62C130.058 191.46 129.584 191.38 129.038 191.38H125.378V195.42ZM125.378 189.3H128.938C129.338 189.3 129.691 189.22 129.998 189.06C130.318 188.9 130.564 188.68 130.738 188.4C130.924 188.12 131.018 187.8 131.018 187.44C131.018 186.84 130.818 186.38 130.418 186.06C130.018 185.74 129.444 185.58 128.698 185.58H125.378V189.3ZM136.831 197.5V183.5H142.531C143.291 183.5 143.978 183.693 144.591 184.08C145.218 184.453 145.718 184.967 146.091 185.62C146.464 186.273 146.651 187 146.651 187.8C146.651 188.6 146.464 189.327 146.091 189.98C145.718 190.633 145.218 191.16 144.591 191.56C143.978 191.947 143.291 192.14 142.531 192.14H138.991V197.5H136.831ZM138.991 190.06H142.491C142.851 190.06 143.178 189.96 143.471 189.76C143.764 189.547 143.998 189.273 144.171 188.94C144.358 188.593 144.451 188.213 144.451 187.8C144.451 187.387 144.358 187.013 144.171 186.68C143.998 186.347 143.764 186.08 143.471 185.88C143.178 185.68 142.851 185.58 142.491 185.58H138.991V190.06ZM153.827 197.7C153.067 197.7 152.36 197.6 151.707 197.4C151.067 197.2 150.48 196.9 149.947 196.5C149.427 196.087 148.96 195.58 148.547 194.98L150.027 193.28C150.68 194.213 151.307 194.86 151.907 195.22C152.507 195.58 153.22 195.76 154.047 195.76C154.554 195.76 155.014 195.68 155.427 195.52C155.84 195.36 156.167 195.14 156.407 194.86C156.647 194.58 156.767 194.26 156.767 193.9C156.767 193.66 156.727 193.433 156.647 193.22C156.567 193.007 156.44 192.813 156.267 192.64C156.107 192.467 155.894 192.307 155.627 192.16C155.374 192.013 155.074 191.887 154.727 191.78C154.38 191.66 153.98 191.56 153.527 191.48C152.807 191.333 152.18 191.14 151.647 190.9C151.114 190.66 150.667 190.36 150.307 190C149.947 189.64 149.68 189.233 149.507 188.78C149.334 188.313 149.247 187.793 149.247 187.22C149.247 186.66 149.367 186.14 149.607 185.66C149.86 185.18 150.2 184.767 150.627 184.42C151.067 184.06 151.58 183.787 152.167 183.6C152.754 183.4 153.387 183.3 154.067 183.3C154.787 183.3 155.447 183.393 156.047 183.58C156.647 183.767 157.18 184.047 157.647 184.42C158.114 184.78 158.5 185.227 158.807 185.76L157.287 187.26C157.02 186.82 156.72 186.453 156.387 186.16C156.054 185.853 155.687 185.627 155.287 185.48C154.887 185.32 154.46 185.24 154.007 185.24C153.487 185.24 153.034 185.32 152.647 185.48C152.26 185.64 151.954 185.867 151.727 186.16C151.514 186.44 151.407 186.773 151.407 187.16C151.407 187.44 151.46 187.7 151.567 187.94C151.674 188.167 151.834 188.373 152.047 188.56C152.274 188.733 152.574 188.893 152.947 189.04C153.32 189.173 153.767 189.293 154.287 189.4C155.02 189.56 155.674 189.767 156.247 190.02C156.82 190.26 157.307 190.547 157.707 190.88C158.107 191.213 158.407 191.587 158.607 192C158.82 192.413 158.927 192.86 158.927 193.34C158.927 194.233 158.72 195.007 158.307 195.66C157.894 196.313 157.307 196.82 156.547 197.18C155.787 197.527 154.88 197.7 153.827 197.7Z" fill="white" fill-opacity="0.7"/>
<path d="M100.471 239.5L110.911 216.748L111.343 217.9H98.5995V214.3H114.187L114.691 216.784L104.647 239.5H100.471ZM127.709 239.5V219.196L128.609 219.412L120.329 229.528L120.185 229.096H135.845V232.66H117.773L116.117 229.42L128.465 214.3H131.453V239.5H127.709ZM142.005 239.5L158.673 214.3H162.381L145.533 239.5H142.005ZM144.309 227.656C143.229 227.656 142.269 227.368 141.429 226.792C140.613 226.192 139.965 225.388 139.485 224.38C139.029 223.348 138.801 222.172 138.801 220.852C138.801 219.532 139.029 218.356 139.485 217.324C139.965 216.268 140.625 215.452 141.465 214.876C142.305 214.276 143.265 213.976 144.345 213.976C145.425 213.976 146.373 214.276 147.189 214.876C148.029 215.452 148.677 216.268 149.133 217.324C149.613 218.356 149.853 219.532 149.853 220.852C149.853 222.124 149.613 223.276 149.133 224.308C148.653 225.34 147.993 226.156 147.153 226.756C146.313 227.356 145.365 227.656 144.309 227.656ZM144.345 224.956C144.849 224.956 145.281 224.788 145.641 224.452C146.025 224.116 146.313 223.648 146.505 223.048C146.721 222.424 146.829 221.692 146.829 220.852C146.829 220.012 146.721 219.28 146.505 218.656C146.313 218.032 146.025 217.552 145.641 217.216C145.281 216.88 144.837 216.712 144.309 216.712C143.805 216.712 143.361 216.892 142.977 217.252C142.593 217.588 142.293 218.068 142.077 218.692C141.885 219.292 141.789 220.012 141.789 220.852C141.789 221.692 141.885 222.424 142.077 223.048C142.293 223.648 142.593 224.116 142.977 224.452C143.361 224.788 143.817 224.956 144.345 224.956ZM160.257 239.824C159.177 239.824 158.217 239.524 157.377 238.924C156.561 238.324 155.913 237.52 155.433 236.512C154.953 235.48 154.713 234.316 154.713 233.02C154.713 231.7 154.941 230.524 155.397 229.492C155.877 228.436 156.537 227.62 157.377 227.044C158.217 226.444 159.177 226.144 160.257 226.144C161.337 226.144 162.285 226.444 163.101 227.044C163.941 227.62 164.589 228.436 165.045 229.492C165.525 230.524 165.765 231.7 165.765 233.02C165.765 234.292 165.525 235.444 165.045 236.476C164.565 237.508 163.905 238.324 163.065 238.924C162.249 239.524 161.313 239.824 160.257 239.824ZM160.257 237.16C160.761 237.16 161.205 236.992 161.589 236.656C161.973 236.296 162.261 235.816 162.453 235.216C162.669 234.592 162.777 233.86 162.777 233.02C162.777 232.18 162.669 231.46 162.453 230.86C162.261 230.236 161.973 229.756 161.589 229.42C161.205 229.06 160.761 228.88 160.257 228.88C159.729 228.88 159.273 229.048 158.889 229.384C158.505 229.72 158.205 230.2 157.989 230.824C157.797 231.448 157.701 232.18 157.701 233.02C157.701 233.86 157.797 234.592 157.989 235.216C158.205 235.816 158.505 236.296 158.889 236.656C159.273 236.992 159.729 237.16 160.257 237.16Z" fill="white" fill-opacity="0.9"/>
</svg>
