<svg width="24" height="24" viewBox="0 0 24 24" fill="none" xmlns="http://www.w3.org/2000/svg">
<path d="M12 17.0004C13.3833 17.0004 14.5627 16.5127 15.538 15.5374C16.5133 14.5621 17.0007 13.3831 17 12.0004C17 10.6171 16.5123 9.43806 15.537 8.46339C14.5617 7.48872 13.3827 7.00106 12 7.00039C10.6167 7.00039 9.43767 7.48806 8.463 8.46339C7.48833 9.43872 7.00067 10.6177 7 12.0004C7 13.3837 7.48767 14.5631 8.463 15.5384C9.43833 16.5137 10.6173 17.0011 12 17.0004ZM12.5 11.8004L14 13.3004C14.1 13.4004 14.15 13.5171 14.15 13.6504C14.15 13.7837 14.1 13.9004 14 14.0004C13.9 14.1004 13.7833 14.1504 13.65 14.1504C13.5167 14.1504 13.4 14.1004 13.3 14.0004L11.8 12.5004C11.7 12.4004 11.625 12.2881 11.575 12.1634C11.525 12.0387 11.5 11.9094 11.5 11.7754V9.50039C11.5 9.36706 11.55 9.25039 11.65 9.15039C11.75 9.05039 11.8667 9.00039 12 9.00039C12.1333 9.00039 12.25 9.05039 12.35 9.15039C12.45 9.25039 12.5 9.36706 12.5 9.50039V11.8004ZM12 21.9004C11.8833 21.9004 11.775 21.8921 11.675 21.8754C11.575 21.8587 11.475 21.8337 11.375 21.8004C9.125 21.0504 7.33333 19.6631 6 17.6384C4.66667 15.6137 4 13.4344 4 11.1004V6.37539C4 5.95872 4.121 5.58372 4.363 5.25039C4.605 4.91706 4.91733 4.67539 5.3 4.52539L11.3 2.27539C11.5333 2.19206 11.7667 2.15039 12 2.15039C12.2333 2.15039 12.4667 2.19206 12.7 2.27539L18.7 4.52539C19.0833 4.67539 19.396 4.91706 19.638 5.25039C19.88 5.58372 20.0007 5.95872 20 6.37539V11.1004C20 13.4337 19.3333 15.6131 18 17.6384C16.6667 19.6637 14.875 21.0511 12.625 21.8004C12.525 21.8337 12.425 21.8587 12.325 21.8754C12.225 21.8921 12.1167 21.9004 12 21.9004ZM12 19.9004C13.7333 19.3504 15.1667 18.2504 16.3 16.6004C17.4333 14.9504 18 13.1171 18 11.1004V6.37539L12 4.12539L6 6.37539V11.1004C6 13.1171 6.56667 14.9504 7.7 16.6004C8.83333 18.2504 10.2667 19.3504 12 19.9004Z" fill="white"/>
</svg>
