<svg width="40" height="40" viewBox="0 0 40 40" fill="none" xmlns="http://www.w3.org/2000/svg">
<path d="M16.6667 26.6663H23.3334C23.8056 26.6663 24.2017 26.5063 24.5217 26.1863C24.8417 25.8663 25.0012 25.4708 25.0001 24.9997V19.9997C25.0001 19.5275 24.8401 19.1319 24.5201 18.813C24.2001 18.4941 23.8045 18.3341 23.3334 18.333V16.6663C23.3334 15.7497 23.0073 14.9652 22.3551 14.313C21.7029 13.6608 20.9179 13.3341 20.0001 13.333C19.0834 13.333 18.299 13.6597 17.6467 14.313C16.9945 14.9663 16.6679 15.7508 16.6667 16.6663V18.333C16.1945 18.333 15.799 18.493 15.4801 18.813C15.1612 19.133 15.0012 19.5286 15.0001 19.9997V24.9997C15.0001 25.4719 15.1601 25.868 15.4801 26.188C15.8001 26.508 16.1956 26.6675 16.6667 26.6663ZM18.3334 18.333V16.6663C18.3334 16.1941 18.4934 15.7986 18.8134 15.4797C19.1334 15.1608 19.529 15.0008 20.0001 14.9997C20.4723 14.9997 20.8684 15.1597 21.1884 15.4797C21.5084 15.7997 21.6679 16.1952 21.6667 16.6663V18.333H18.3334ZM20.0001 36.4997C19.8056 36.4997 19.6251 36.4858 19.4584 36.458C19.2917 36.4302 19.1251 36.3886 18.9584 36.333C15.2084 35.083 12.2223 32.7702 10.0001 29.3947C7.77786 26.0191 6.66675 22.3875 6.66675 18.4997V10.6247C6.66675 9.93023 6.86841 9.30523 7.27175 8.74967C7.67508 8.19412 8.19564 7.79134 8.83341 7.54134L18.8334 3.79134C19.2223 3.65245 19.6112 3.58301 20.0001 3.58301C20.389 3.58301 20.7779 3.65245 21.1667 3.79134L31.1667 7.54134C31.8056 7.79134 32.3267 8.19412 32.7301 8.74967C33.1334 9.30523 33.3345 9.93023 33.3334 10.6247V18.4997C33.3334 22.3886 32.2223 26.0208 30.0001 29.3963C27.7779 32.7719 24.7917 35.0841 21.0417 36.333C20.8751 36.3886 20.7084 36.4302 20.5417 36.458C20.3751 36.4858 20.1945 36.4997 20.0001 36.4997ZM20.0001 33.1663C22.889 32.2497 25.2779 30.4163 27.1667 27.6663C29.0556 24.9163 30.0001 21.8608 30.0001 18.4997V10.6247L20.0001 6.87467L10.0001 10.6247V18.4997C10.0001 21.8608 10.9445 24.9163 12.8334 27.6663C14.7223 30.4163 17.1112 32.2497 20.0001 33.1663Z" fill="white"/>
</svg>
