<svg width="16" height="18" viewBox="0 0 16 18" fill="none" xmlns="http://www.w3.org/2000/svg">
<path d="M3.83724 6.16634V4.49967C3.83724 2.19849 5.70272 0.333008 8.00392 0.333008C10.3051 0.333008 12.1706 2.19849 12.1706 4.49967V6.16634H14.6706C15.1308 6.16634 15.5039 6.53944 15.5039 6.99967V16.9997C15.5039 17.4599 15.1308 17.833 14.6706 17.833H1.33724C0.877006 17.833 0.503906 17.4599 0.503906 16.9997V6.99967C0.503906 6.53944 0.877006 6.16634 1.33724 6.16634H3.83724ZM3.83724 7.833H2.17057V16.1664H13.8373V7.833H12.1706V9.4997H10.5039V7.833H5.50391V9.4997H3.83724V7.833ZM5.50391 6.16634H10.5039V4.49967C10.5039 3.11896 9.38459 1.99967 8.00392 1.99967C6.62317 1.99967 5.50391 3.11896 5.50391 4.49967V6.16634Z" fill="currentColor" fill-opacity="0.9"/>
</svg>
