<svg width="60" height="60" viewBox="0 0 60 60" fill="none" xmlns="http://www.w3.org/2000/svg">
<path d="M30 45C28.8408 45.0048 27.7113 45.3677 26.7662 46.0389C25.8211 46.7102 25.1064 47.657 24.72 48.75H22.5C21.0082 48.75 19.5774 48.1574 18.5225 47.1025C17.4676 46.0476 16.875 44.6168 16.875 43.125V39.375C16.875 38.8777 16.6775 38.4008 16.3258 38.0492C15.9742 37.6975 15.4973 37.5 15 37.5C14.5027 37.5 14.0258 37.6975 13.6742 38.0492C13.3225 38.4008 13.125 38.8777 13.125 39.375V43.125C13.128 45.6105 14.1167 47.9933 15.8742 49.7508C17.6317 51.5083 20.0145 52.497 22.5 52.5H24.72C25.0654 53.4697 25.6707 54.3258 26.4698 54.9748C27.2689 55.6237 28.2309 56.0405 29.2509 56.1797C30.2708 56.3189 31.3094 56.175 32.2531 55.7638C33.1968 55.3527 34.0093 54.69 34.6019 53.8483C35.1944 53.0066 35.5443 52.0182 35.6131 50.9911C35.6819 49.964 35.4671 48.9377 34.9921 48.0245C34.5172 47.1112 33.8003 46.3461 32.9199 45.8127C32.0395 45.2793 31.0294 44.9982 30 45Z" fill="white"/>
<path d="M47.8125 22.5H46.875V20.625C46.875 16.1495 45.0971 11.8572 41.9324 8.69257C38.7677 5.5279 34.4755 3.75 30 3.75C25.5245 3.75 21.2322 5.5279 18.0676 8.69257C14.9029 11.8572 13.125 16.1495 13.125 20.625V22.5H12.1875C10.447 22.5 8.77782 23.1914 7.54711 24.4221C6.3164 25.6528 5.625 27.322 5.625 29.0625V34.6875C5.625 36.428 6.3164 38.0972 7.54711 39.3279C8.77782 40.5586 10.447 41.25 12.1875 41.25H16.875C17.8696 41.25 18.8234 40.8549 19.5266 40.1516C20.2299 39.4484 20.625 38.4946 20.625 37.5V26.25C20.625 25.2554 20.2299 24.3016 19.5266 23.5984C18.8234 22.8951 17.8696 22.5 16.875 22.5V20.625C16.875 17.144 18.2578 13.8056 20.7192 11.3442C23.1806 8.88281 26.519 7.5 30 7.5C33.481 7.5 36.8194 8.88281 39.2808 11.3442C41.7422 13.8056 43.125 17.144 43.125 20.625V22.5C42.1304 22.5 41.1766 22.8951 40.4734 23.5984C39.7701 24.3016 39.375 25.2554 39.375 26.25V37.5C39.375 38.4946 39.7701 39.4484 40.4734 40.1516C41.1766 40.8549 42.1304 41.25 43.125 41.25H47.8125C49.553 41.25 51.2222 40.5586 52.4529 39.3279C53.6836 38.0972 54.375 36.428 54.375 34.6875V29.0625C54.375 27.322 53.6836 25.6528 52.4529 24.4221C51.2222 23.1914 49.553 22.5 47.8125 22.5Z" fill="white"/>
</svg>
