<svg width="24" height="24" viewBox="0 0 24 24" fill="none" xmlns="http://www.w3.org/2000/svg">
<path d="M15.5 13.5C15.5 15.5 13 17 13 18.5H11C11 17 8.5 15.5 8.5 13.5C8.5 11.57 10.07 10 12 10C13.93 10 15.5 11.57 15.5 13.5ZM13 19.5H11V21H13V19.5ZM19 13C19 14.68 18.41 16.21 17.42 17.42L18.84 18.84C19.6089 17.9427 20.1931 16.9024 20.5591 15.7788C20.9251 14.6552 21.0656 13.4704 20.9727 12.2924C20.8798 11.1143 20.5553 9.96623 20.0177 8.91389C19.4801 7.86156 18.7401 6.9257 17.84 6.16L16.42 7.58C17.2254 8.23523 17.8749 9.06159 18.3211 9.99909C18.7674 10.9366 18.9993 11.9617 19 13ZM16 5L12 1V4C9.61305 4 7.32387 4.94821 5.63604 6.63604C3.94821 8.32387 3 10.6131 3 13C3 15.23 3.82 17.27 5.16 18.84L6.58 17.42C5.5558 16.175 4.99714 14.6122 5 13C5 9.14 8.14 6 12 6V9L16 5Z" fill="white"/>
</svg>
