<svg width="38" height="34" viewBox="0 0 38 34" fill="none" xmlns="http://www.w3.org/2000/svg">
<path d="M19.0001 17.9763L26.0717 25.0463L23.7134 27.4047L20.6667 24.358V33.6663H17.3334V24.3547L14.2867 27.4047L11.9284 25.0463L19.0001 17.9763ZM19.0001 0.333008C21.8617 0.333144 24.6235 1.38486 26.7604 3.28821C28.8973 5.19155 30.2602 7.81378 30.5901 10.6563C32.6639 11.222 34.473 12.4984 35.7011 14.2626C36.9293 16.0268 37.4984 18.1665 37.3089 20.3077C37.1195 22.4489 36.1836 24.4555 34.6648 25.9767C33.1461 27.4978 31.141 28.4369 29.0001 28.6297V25.333C29.0027 22.7116 27.9759 20.1939 26.1407 18.3221C24.3054 16.4502 21.8086 15.3739 19.1876 15.3247C16.5666 15.2756 14.0312 16.2575 12.127 18.0592C10.2229 19.861 9.1024 22.3383 9.00674 24.958L9.00007 25.333V28.6297C6.85915 28.4369 4.85408 27.4978 3.33529 25.9767C1.8165 24.4555 0.880613 22.4489 0.691191 20.3077C0.50177 18.1665 1.07087 16.0268 2.29902 14.2626C3.52716 12.4984 5.33625 11.222 7.41007 10.6563C7.73958 7.81364 9.10241 5.19119 11.2394 3.28778C13.3763 1.38437 16.1383 0.33278 19.0001 0.333008Z" fill="white"/>
</svg>
