<svg width="40" height="40" viewBox="0 0 40 40" fill="none" xmlns="http://www.w3.org/2000/svg">
<path d="M3.33325 30.0003V28.667C3.33325 27.7225 3.56936 26.8548 4.04159 26.0637C4.51381 25.2725 5.16659 24.6681 5.99992 24.2503C7.58325 23.4448 9.22936 22.8059 10.9383 22.3337C12.6471 21.8614 14.3899 21.6253 16.1666 21.6253C16.5555 21.6253 16.861 21.7992 17.0833 22.147C17.3055 22.4948 17.3471 22.8625 17.2083 23.2503C17.0416 23.8337 16.9166 24.417 16.8333 25.0003C16.7499 25.5837 16.7083 26.1809 16.7083 26.792C16.7083 27.5975 16.7916 28.3753 16.9583 29.1253C17.1249 29.8753 17.361 30.6114 17.6666 31.3337C17.8888 31.8059 17.8683 32.2575 17.6049 32.6887C17.3416 33.1198 16.9733 33.3348 16.4999 33.3337H6.66659C5.74992 33.3337 4.96547 33.0075 4.31325 32.3553C3.66103 31.7031 3.33436 30.9181 3.33325 30.0003ZM28.3333 30.0003C29.2499 30.0003 30.0349 29.6742 30.6883 29.022C31.3416 28.3698 31.6677 27.5848 31.6666 26.667C31.6666 25.7503 31.3405 24.9659 30.6883 24.3137C30.036 23.6614 29.251 23.3348 28.3333 23.3337C27.4166 23.3337 26.6321 23.6603 25.9799 24.3137C25.3277 24.967 25.001 25.7514 24.9999 26.667C24.9999 27.5837 25.3266 28.3687 25.9799 29.022C26.6333 29.6753 27.4177 30.0014 28.3333 30.0003ZM16.6666 20.0003C14.8333 20.0003 13.2638 19.3475 11.9583 18.042C10.6527 16.7364 9.99992 15.167 9.99992 13.3337C9.99992 11.5003 10.6527 9.93088 11.9583 8.62533C13.2638 7.31977 14.8333 6.66699 16.6666 6.66699C18.4999 6.66699 20.0694 7.31977 21.3749 8.62533C22.6805 9.93088 23.3333 11.5003 23.3333 13.3337C23.3333 15.167 22.6805 16.7364 21.3749 18.042C20.0694 19.3475 18.4999 20.0003 16.6666 20.0003ZM26.4166 33.667L26.1666 32.5003C25.8333 32.3614 25.521 32.2159 25.2299 32.0637C24.9388 31.9114 24.6399 31.7237 24.3333 31.5003L23.1249 31.8753C22.7638 31.9864 22.4099 31.9725 22.0633 31.8337C21.7166 31.6948 21.4455 31.4725 21.2499 31.167L20.9166 30.5837C20.7221 30.2503 20.6527 29.8892 20.7083 29.5003C20.7638 29.1114 20.9444 28.792 21.2499 28.542L22.1666 27.7503C22.111 27.3614 22.0833 27.0003 22.0833 26.667C22.0833 26.3337 22.111 25.9725 22.1666 25.5837L21.2499 24.792C20.9444 24.542 20.7638 24.2292 20.7083 23.8537C20.6527 23.4781 20.7221 23.1242 20.9166 22.792L21.2916 22.167C21.486 21.8614 21.7499 21.6392 22.0833 21.5003C22.4166 21.3614 22.7638 21.3475 23.1249 21.4587L24.3333 21.8337C24.6388 21.6114 24.9377 21.4237 25.2299 21.2703C25.5221 21.117 25.8344 20.9714 26.1666 20.8337L26.4166 19.6253C26.4999 19.2364 26.6877 18.9242 26.9799 18.6887C27.2721 18.4531 27.6121 18.3348 27.9999 18.3337H28.6666C29.0555 18.3337 29.396 18.4587 29.6883 18.7087C29.9805 18.9587 30.1677 19.2781 30.2499 19.667L30.4999 20.8337C30.8333 20.9725 31.1455 21.1253 31.4366 21.292C31.7277 21.4587 32.0266 21.667 32.3333 21.917L33.4583 21.542C33.8471 21.4031 34.2221 21.4031 34.5833 21.542C34.9444 21.6809 35.2221 21.917 35.4166 22.2503L35.7499 22.8337C35.9444 23.167 36.0138 23.5281 35.9583 23.917C35.9027 24.3059 35.7221 24.6253 35.4166 24.8753L34.4999 25.667C34.5555 26.0003 34.5833 26.3475 34.5833 26.7087C34.5833 27.0698 34.5555 27.417 34.4999 27.7503L35.4166 28.542C35.7221 28.792 35.9027 29.1048 35.9583 29.4803C36.0138 29.8559 35.9444 30.2098 35.7499 30.542L35.3749 31.167C35.1805 31.4725 34.9166 31.6948 34.5833 31.8337C34.2499 31.9725 33.9027 31.9864 33.5416 31.8753L32.3333 31.5003C32.0277 31.7225 31.7288 31.9098 31.4366 32.062C31.1444 32.2142 30.8321 32.3603 30.4999 32.5003L30.2499 33.7087C30.1666 34.0975 29.9794 34.4103 29.6883 34.647C29.3971 34.8837 29.0566 35.0014 28.6666 35.0003H27.9999C27.611 35.0003 27.271 34.8753 26.9799 34.6253C26.6888 34.3753 26.501 34.0559 26.4166 33.667Z" fill="white"/>
</svg>
