<svg width="40" height="40" viewBox="0 0 40 40" fill="none" xmlns="http://www.w3.org/2000/svg">
<g clip-path="url(#clip0_1129_5366)">
<path d="M3.5 18.5003L0 15.0003C2.55556 12.3892 5.54167 10.3475 8.95833 8.87533C12.375 7.4031 16.0556 6.66699 20 6.66699C20.6667 6.66699 21.3333 6.68755 22 6.72866C22.6667 6.76977 23.3333 6.83255 24 6.91699L21.5 11.7503C21.1667 11.6948 20.8956 11.667 20.6867 11.667H20C16.7778 11.667 13.7572 12.2714 10.9383 13.4803C8.11944 14.6892 5.64 16.3625 3.5 18.5003ZM10.5833 25.5837L7.08333 22.0003C8.63889 20.4448 10.4239 19.2159 12.4383 18.3137C14.4528 17.4114 16.64 16.8903 19 16.7503L16.3333 22.167C15.25 22.5003 14.2222 22.952 13.25 23.522C12.2778 24.092 11.3889 24.7792 10.5833 25.5837ZM18.8333 33.0837C18 32.7781 17.3544 32.202 16.8967 31.3553C16.4389 30.5087 16.4178 29.6681 16.8333 28.8337L26.8333 8.50033C26.9444 8.2781 27.1044 8.13255 27.3133 8.06366C27.5222 7.99477 27.7511 8.00144 28 8.08366C28.2222 8.16699 28.3889 8.30588 28.5 8.50033C28.6111 8.69477 28.6389 8.91699 28.5833 9.16699L23.1667 31.0837C22.9444 32.0003 22.3889 32.6392 21.5 33.0003C20.6111 33.3614 19.7222 33.3892 18.8333 33.0837ZM29.4167 25.5837C29.25 25.417 29.0694 25.2503 28.875 25.0837C28.6806 24.917 28.4722 24.7503 28.25 24.5837L29.5833 19.3337C30.1667 19.7503 30.7433 20.1742 31.3133 20.6053C31.8833 21.0364 32.4178 21.5014 32.9167 22.0003L29.4167 25.5837ZM36.5 18.5003C35.6667 17.667 34.7711 16.9031 33.8133 16.2087C32.8556 15.5142 31.8344 14.8892 30.75 14.3337L31.9167 9.33366C33.4167 10.0559 34.8472 10.8892 36.2083 11.8337C37.5694 12.7781 38.8333 13.8337 40 15.0003L36.5 18.5003Z" fill="white"/>
</g>
<defs>
<clipPath id="clip0_1129_5366">
<rect width="40" height="40" fill="white"/>
</clipPath>
</defs>
</svg>
