<svg width="24" height="24" viewBox="0 0 24 24" fill="none" xmlns="http://www.w3.org/2000/svg">
<path d="M4.93001 4.92969C4.00002 5.85707 3.26244 6.95906 2.75962 8.17236C2.2568 9.38565 1.99865 10.6863 2.00001 11.9997C2.00001 14.7597 3.12001 17.2597 4.93001 19.0697L6.34001 17.6597C5.59466 16.9182 5.004 16.036 4.6023 15.0644C4.20061 14.0928 3.99588 13.0511 4.00001 11.9997C4.00001 9.78969 4.89001 7.77969 6.34001 6.33969L4.93001 4.92969ZM19.07 4.92969L17.66 6.33969C18.4045 7.08187 18.9945 7.96416 19.3962 8.93562C19.7978 9.90709 20.003 10.9485 20 11.9997C20 14.2197 19.11 16.2197 17.66 17.6597L19.07 19.0697C20 18.1423 20.7376 17.0403 21.2404 15.827C21.7432 14.6137 22.0014 13.313 22 11.9997C22 9.23969 20.88 6.73969 19.07 4.92969ZM7.76001 7.75969C7.20181 8.31565 6.75896 8.97643 6.45693 9.70407C6.15489 10.4317 5.99961 11.2119 6.00001 11.9997C6.00001 13.6497 6.67001 15.1497 7.76001 16.2397L9.17001 14.8297C8.79867 14.4579 8.50421 14.0167 8.30346 13.5311C8.10271 13.0455 7.99959 12.5251 8.00001 11.9997C8.00001 10.8897 8.45001 9.88969 9.17001 9.16969L7.76001 7.75969ZM16.24 7.75969L14.83 9.16969C15.2013 9.54144 15.4958 9.98271 15.6966 10.4683C15.8973 10.9539 16.0004 11.4742 16 11.9997C16 13.1097 15.55 14.1097 14.83 14.8297L16.24 16.2397C16.7982 15.6837 17.241 15.0229 17.5431 14.2953C17.8451 13.5677 18.0004 12.7875 18 11.9997C18 10.3497 17.33 8.84969 16.24 7.75969ZM12 9.99969C11.4696 9.99969 10.9609 10.2104 10.5858 10.5855C10.2107 10.9605 10 11.4693 10 11.9997C10 12.5301 10.2107 13.0388 10.5858 13.4139C10.9609 13.789 11.4696 13.9997 12 13.9997C12.5304 13.9997 13.0391 13.789 13.4142 13.4139C13.7893 13.0388 14 12.5301 14 11.9997C14 11.4693 13.7893 10.9605 13.4142 10.5855C13.0391 10.2104 12.5304 9.99969 12 9.99969Z" fill="white"/>
</svg>
