<svg width="24" height="24" viewBox="0 0 24 24" fill="none" xmlns="http://www.w3.org/2000/svg">
<path d="M10 16.0004H14C14.2833 16.0004 14.521 15.9044 14.713 15.7124C14.905 15.5204 15.0007 15.2831 15 15.0004V12.0004C15 11.7171 14.904 11.4797 14.712 11.2884C14.52 11.0971 14.2827 11.0011 14 11.0004V10.0004C14 9.45039 13.8043 8.97972 13.413 8.58839C13.0217 8.19706 12.5507 8.00106 12 8.00039C11.45 8.00039 10.9793 8.19639 10.588 8.58839C10.1967 8.98039 10.0007 9.45106 10 10.0004V11.0004C9.71667 11.0004 9.47933 11.0964 9.288 11.2884C9.09667 11.4804 9.00067 11.7177 9 12.0004V15.0004C9 15.2837 9.096 15.5214 9.288 15.7134C9.48 15.9054 9.71733 16.0011 10 16.0004ZM11 11.0004V10.0004C11 9.71706 11.096 9.47972 11.288 9.28839C11.48 9.09706 11.7173 9.00106 12 9.00039C12.2833 9.00039 12.521 9.09639 12.713 9.28839C12.905 9.48039 13.0007 9.71772 13 10.0004V11.0004H11ZM12 21.9004C11.8833 21.9004 11.775 21.8921 11.675 21.8754C11.575 21.8587 11.475 21.8337 11.375 21.8004C9.125 21.0504 7.33333 19.6627 6 17.6374C4.66667 15.6121 4 13.4331 4 11.1004V6.37539C4 5.95872 4.121 5.58372 4.363 5.25039C4.605 4.91706 4.91733 4.67539 5.3 4.52539L11.3 2.27539C11.5333 2.19206 11.7667 2.15039 12 2.15039C12.2333 2.15039 12.4667 2.19206 12.7 2.27539L18.7 4.52539C19.0833 4.67539 19.396 4.91706 19.638 5.25039C19.88 5.58372 20.0007 5.95872 20 6.37539V11.1004C20 13.4337 19.3333 15.6131 18 17.6384C16.6667 19.6637 14.875 21.0511 12.625 21.8004C12.525 21.8337 12.425 21.8587 12.325 21.8754C12.225 21.8921 12.1167 21.9004 12 21.9004ZM12 19.9004C13.7333 19.3504 15.1667 18.2504 16.3 16.6004C17.4333 14.9504 18 13.1171 18 11.1004V6.37539L12 4.12539L6 6.37539V11.1004C6 13.1171 6.56667 14.9504 7.7 16.6004C8.83333 18.2504 10.2667 19.3504 12 19.9004Z" fill="white"/>
</svg>
