<svg width="24" height="24" viewBox="0 0 24 24" fill="none" xmlns="http://www.w3.org/2000/svg">
<g clip-path="url(#clip0_1803_3362)">
<path d="M2.1 11.1L0 9C1.53333 7.43333 3.325 6.20833 5.375 5.325C7.425 4.44167 9.63333 4 12 4C12.4 4 12.8 4.01233 13.2 4.037C13.6 4.06167 14 4.09933 14.4 4.15L12.9 7.05C12.7 7.01667 12.5373 7 12.412 7H12C10.0667 7 8.25433 7.36267 6.563 8.088C4.87167 8.81333 3.384 9.81733 2.1 11.1ZM6.35 15.35L4.25 13.2C5.18333 12.2667 6.25433 11.5293 7.463 10.988C8.67167 10.4467 9.984 10.134 11.4 10.05L9.8 13.3C9.15 13.5 8.53333 13.771 7.95 14.113C7.36667 14.455 6.83333 14.8673 6.35 15.35ZM11.3 19.85C10.8 19.6667 10.4127 19.321 10.138 18.813C9.86333 18.305 9.85067 17.8007 10.1 17.3L16.1 5.1C16.1667 4.96667 16.2627 4.87933 16.388 4.838C16.5133 4.79667 16.6507 4.80067 16.8 4.85C16.9333 4.9 17.0333 4.98333 17.1 5.1C17.1667 5.21667 17.1833 5.35 17.15 5.5L13.9 18.65C13.7667 19.2 13.4333 19.5833 12.9 19.8C12.3667 20.0167 11.8333 20.0333 11.3 19.85ZM17.65 15.35C17.55 15.25 17.4417 15.15 17.325 15.05C17.2083 14.95 17.0833 14.85 16.95 14.75L17.75 11.6C18.1 11.85 18.446 12.1043 18.788 12.363C19.13 12.6217 19.4507 12.9007 19.75 13.2L17.65 15.35ZM21.9 11.1C21.4 10.6 20.8627 10.1417 20.288 9.725C19.7133 9.30833 19.1007 8.93333 18.45 8.6L19.15 5.6C20.05 6.03333 20.9083 6.53333 21.725 7.1C22.5417 7.66667 23.3 8.3 24 9L21.9 11.1Z" fill="white"/>
</g>
<defs>
<clipPath id="clip0_1803_3362">
<rect width="24" height="24" fill="white"/>
</clipPath>
</defs>
</svg>
